<svg width="20" height="20" viewBox="0 0 20 20" fill="none" xmlns="http://www.w3.org/2000/svg">
<path d="M17.5 7.5H16.3167L13.2234 2.08667L11.7767 2.91334L14.3975 7.5H5.60252L8.22419 2.91334L6.77669 2.08667L3.68336 7.5H2.50002C2.24002 7.5 1.99585 7.62167 1.83752 7.8275C1.68002 8.03417 1.62752 8.3025 1.69585 8.5525L4.02836 17.1058C4.22586 17.8292 4.88752 18.3333 5.63669 18.3333H14.3642C15.1125 18.3333 15.7742 17.8292 15.9725 17.1042L18.305 8.55167C18.3734 8.30167 18.3217 8.03334 18.1634 7.82667C18.0042 7.62167 17.76 7.5 17.5 7.5ZM14.3634 16.6667V17.5V16.6667H5.63669L3.59169 9.16667H16.4084L14.3634 16.6667Z" fill="white"/>
<path d="M7.5 10.8333H9.16667V15H7.5V10.8333ZM10.8333 10.8333H12.5V15H10.8333V10.8333Z" fill="white"/>
</svg>
