<svg width="20" height="20" viewBox="0 0 20 20" fill="none" xmlns="http://www.w3.org/2000/svg">
<path d="M10 18.3333L10.8333 16.6667V14.1667H15C15.4608 14.1667 15.8333 13.7942 15.8333 13.3333V12.0117C15.8333 11.5733 15.655 11.1433 15.345 10.8333L14.1667 9.655V6.66667C14.6275 6.66667 15 6.29417 15 5.83333V3.33333C15 2.41417 14.2525 1.66667 13.3333 1.66667H6.66667C5.74751 1.66667 5.00001 2.41417 5.00001 3.33333V5.83333C5.00001 6.29417 5.37334 6.66667 5.83334 6.66667V9.655L4.65501 10.8333C4.34417 11.1433 4.16667 11.5733 4.16667 12.0117V13.3333C4.16667 13.7942 4.54001 14.1667 5.00001 14.1667H9.16667V16.6667L10 18.3333ZM6.66667 3.33333H13.3333V5H6.66667V3.33333ZM5.83334 12.0117L7.25584 10.5892C7.4125 10.4333 7.50001 10.2217 7.50001 10V6.66667H12.5V10C12.5 10.2217 12.5875 10.4333 12.7442 10.5892L14.1667 12.0117V12.5H5.83334V12.0117Z" fill="white"/>
</svg>
