<svg width="20" height="20" viewBox="0 0 20 20" fill="none" xmlns="http://www.w3.org/2000/svg">
<path d="M19.6667 10.6666H18.6667V4.33331C18.6667 4.13331 18.5333 3.99998 18.3333 3.99998H15.6667H13.6667H11.3333V1.66665C11.3333 1.46665 11.2 1.33331 11 1.33331H8H6H3C2.8 1.33331 2.66667 1.46665 2.66667 1.66665V8.66665H0.333333C0.133333 8.66665 0 8.79998 0 8.99998V18.3333C0 18.5333 0.133333 18.6666 0.333333 18.6666H11H19.6667C19.8667 18.6666 20 18.5333 20 18.3333V11C20 10.8 19.8667 10.6666 19.6667 10.6666ZM15.3333 4.66665V6.66665H14V4.66665H15.3333ZM13.3333 4.66665V6.99998C13.3333 7.19998 13.4667 7.33331 13.6667 7.33331H15.6667C15.8667 7.33331 16 7.19998 16 6.99998V4.66665H18V10.6666H16.3333H14.3333H11.3333V8.99998V4.66665H13.3333ZM14.6667 11.3333H16V13.3333H14.6667V11.3333ZM7.66667 1.99998V3.99998H6.33333V1.99998H7.66667ZM3.33333 1.99998H5.66667V4.33331C5.66667 4.53331 5.8 4.66665 6 4.66665H8C8.2 4.66665 8.33333 4.53331 8.33333 4.33331V1.99998H10.6667V4.33331V8.66665H7H4.33333H3.33333V1.99998ZM4.66667 9.33331H6.66667V12H4.66667V9.33331ZM0.666667 9.33331H3H4V12.3333C4 12.5333 4.13333 12.6666 4.33333 12.6666H7C7.2 12.6666 7.33333 12.5333 7.33333 12.3333V9.33331H10.6667V11V18H0.666667V9.33331ZM19.3333 18H11.3333V11.3333H14V13.6666C14 13.8666 14.1333 14 14.3333 14H16.3333C16.5333 14 16.6667 13.8666 16.6667 13.6666V11.3333H18.3333H19.3333V18Z" fill="white"/>
</svg>
