<svg width="20" height="14" viewBox="0 0 20 14" fill="none" xmlns="http://www.w3.org/2000/svg">
<path d="M19.6667 4.33332H18.3334C18.2 4.33332 18.0667 4.43332 18.0334 4.56664L17.1 7.33332H16.2L15.3 5.83332C15.2334 5.73332 15.1334 5.66664 15 5.66664H13.6667V4.66664C13.6667 4.46664 13.5334 4.33332 13.3334 4.33332H11V3H12C12.2 3 12.3333 2.86668 12.3333 2.66668V0.666679C12.3333 0.466679 12.2 0.333359 12 0.333359H6C5.8 0.333359 5.66668 0.466679 5.66668 0.666679V2.66668C5.66668 2.86668 5.8 3 6 3H7V4.33332H4.33332C4.23332 4.33332 4.16664 4.36664 4.1 4.43332C4.03336 4.5 4 4.56664 4 4.66664V5.66664H1.66668C1.46668 5.66664 1.33336 5.79996 1.33336 5.99996V7.99996H0.66668V7C0.66668 6.8 0.533359 6.66668 0.333359 6.66668C0.133359 6.66668 0 6.8 0 7V9.66668C0 9.86668 0.13332 10 0.33332 10C0.53332 10 0.666641 9.86668 0.666641 9.66668V8.66668H1.33332V11.3334C1.33332 11.5334 1.46664 11.6667 1.66664 11.6667H4.16664L5.39996 13.5334C5.46664 13.6 5.56664 13.6667 5.66664 13.6667H15C15.1333 13.6667 15.2333 13.6 15.3 13.4667L16.2 11.6667H17.1333L18.0333 13.4667C18.1 13.6 18.2 13.6667 18.3333 13.6667H19.6666C19.8666 13.6667 20 13.5334 20 13.3334V4.66668C20 4.46668 19.8667 4.33332 19.6667 4.33332ZM6.33332 0.999999H11.6666V2.33332H10.6666H7.33332H6.33332V0.999999ZM7.66668 3H10.3334V4.33332H7.66668V3ZM2 11V6.33332H4V11H2ZM14.7667 13H5.83332L4.66664 11.2342V6V5H7.33332H10.6666H13V6C13 6.2 13.1333 6.33332 13.3333 6.33332H14.8L15.6667 7.77777V11.2L14.7667 13ZM16.3333 11V8H17V11H16.3333ZM19.3333 13H18.5333L17.6666 11.3286V7.66785L18.5666 5H19.3333V13Z" fill="white"/>
</svg>
