<svg width="20" height="20" viewBox="0 0 20 20" fill="none" xmlns="http://www.w3.org/2000/svg">
<g clip-path="url(#clip0_2005_1684)">
<path fill-rule="evenodd" clip-rule="evenodd" d="M3.00225 0C2.88366 0 2.76994 0.0470721 2.68609 0.130925C2.60224 0.214779 2.55512 0.328544 2.55512 0.44713V9.20912H0.44713C0.328548 9.20913 0.214823 9.25624 0.130972 9.34009C0.0471213 9.42394 1.18552e-05 9.53766 0 9.65625V14.7663C1.18552e-05 14.8849 0.0471213 14.9986 0.130972 15.0825C0.214823 15.1663 0.328548 15.2134 0.44713 15.2134H2.55512V19.5529C2.55512 19.6715 2.60224 19.7852 2.68609 19.869C2.76994 19.9529 2.88366 20 3.00225 20C3.12083 20 3.23455 19.9529 3.31841 19.869C3.40226 19.7852 3.44938 19.6715 3.44938 19.5529V15.2134H5.55718C5.67576 15.2134 5.78949 15.1663 5.87334 15.0825C5.95719 14.9986 6.0043 14.8849 6.00431 14.7663V9.65625C6.0043 9.53766 5.95719 9.42394 5.87334 9.34009C5.78949 9.25624 5.67576 9.20913 5.55718 9.20912H3.44938V0.44713C3.44938 0.328544 3.40226 0.214779 3.31841 0.130925C3.23455 0.0470721 3.12083 0 3.00225 0ZM9.67897 0C9.56039 0 9.44667 0.0470721 9.36282 0.130925C9.27896 0.214779 9.23184 0.328544 9.23184 0.44713V2.975H7.1239C7.00532 2.97501 6.8916 3.02212 6.80775 3.10597C6.72389 3.18982 6.67679 3.30355 6.67677 3.42213V8.53195C6.67679 8.65053 6.72389 8.76425 6.80775 8.8481C6.8916 8.93195 7.00532 8.97906 7.1239 8.97908H9.23184V19.5529C9.23184 19.6715 9.27896 19.7852 9.36282 19.869C9.44667 19.9529 9.56039 20 9.67897 20C9.79756 20 9.91133 19.9529 9.99518 19.869C10.079 19.7852 10.1261 19.6715 10.1261 19.5529V8.97908H12.2339C12.3525 8.97906 12.4662 8.93195 12.5501 8.8481C12.6339 8.76425 12.681 8.65053 12.681 8.53195V3.42213C12.681 3.30355 12.6339 3.18982 12.5501 3.10597C12.4662 3.02212 12.3525 2.97501 12.2339 2.975H10.1261V0.44713C10.1261 0.328544 10.079 0.214779 9.99518 0.130925C9.91133 0.0470721 9.79756 0 9.67897 0ZM16.3556 0C16.237 0 16.1233 0.0470721 16.0394 0.130925C15.9556 0.214779 15.9084 0.328544 15.9084 0.44713V10.7949H13.8006C13.682 10.7949 13.5683 10.842 13.4845 10.9259C13.4006 11.0097 13.3535 11.1234 13.3535 11.242V16.352C13.3535 16.4706 13.4006 16.5843 13.4845 16.6682C13.5683 16.752 13.682 16.7991 13.8006 16.7992H15.9084V19.5529C15.9084 19.6715 15.9556 19.7852 16.0394 19.869C16.1233 19.9529 16.237 20 16.3556 20C16.4741 20 16.5879 19.9529 16.6717 19.869C16.7556 19.7852 16.8027 19.6715 16.8027 19.5529V16.7992H18.9108C19.0294 16.7991 19.1431 16.752 19.227 16.6682C19.3108 16.5843 19.3579 16.4706 19.3579 16.352V11.242C19.3579 11.1234 19.3108 11.0097 19.227 10.9259C19.1431 10.842 19.0294 10.7949 18.9108 10.7949H16.8027V0.44713C16.8027 0.328544 16.7556 0.214779 16.6717 0.130925C16.5879 0.0470721 16.4741 0 16.3556 0ZM7.57103 3.86926H11.7868V8.08482H9.67897H7.57103V3.86926ZM0.894261 10.1034H5.11005V14.3192H0.894261V10.1034ZM14.2478 11.6892H18.4637V15.9049H14.2478V11.6892Z" fill="white"/>
</g>
<defs>
<clipPath id="clip0_2005_1684">
<rect width="20" height="20" fill="white"/>
</clipPath>
</defs>
</svg>
