<svg width="12" height="12" viewBox="0 0 12 12" fill="none" xmlns="http://www.w3.org/2000/svg">
<path d="M0.75 7.16667L0.75 10.6667C0.75 10.8214 0.811458 10.9697 0.920854 11.0791C1.03025 11.1885 1.17862 11.25 1.33333 11.25H4.83333C4.98804 11.25 5.13642 11.1885 5.24581 11.0791C5.35521 10.9697 5.41667 10.8214 5.41667 10.6667V7.16667C5.41667 7.01196 5.35521 6.86358 5.24581 6.75419C5.13642 6.64479 4.98804 6.58333 4.83333 6.58333H1.33333C1.17862 6.58333 1.03025 6.64479 0.920854 6.75419C0.811458 6.86358 0.75 7.01196 0.75 7.16667ZM4.25 7.75V10.0833H1.91667L1.91667 7.75H4.25ZM6.58333 1.33333L6.58333 4.83333C6.58333 4.98804 6.64479 5.13642 6.75419 5.24581C6.86358 5.35521 7.01196 5.41667 7.16667 5.41667L10.6667 5.41667C10.8214 5.41667 10.9697 5.35521 11.0791 5.24581C11.1885 5.13642 11.25 4.98804 11.25 4.83333V1.33333C11.25 1.17862 11.1885 1.03025 11.0791 0.920855C10.9697 0.811458 10.8214 0.75 10.6667 0.75H7.16667C7.01196 0.75 6.86358 0.811458 6.75419 0.920855C6.64479 1.03025 6.58333 1.17862 6.58333 1.33333ZM10.0833 1.91667V4.25L7.75 4.25L7.75 1.91667H10.0833ZM0.75 3.08333C0.75 4.37017 1.7965 5.41667 3.08333 5.41667C4.37017 5.41667 5.41667 4.37017 5.41667 3.08333C5.41667 1.7965 4.37017 0.75 3.08333 0.75C1.7965 0.75 0.75 1.7965 0.75 3.08333ZM4.25 3.08333C4.25 3.72675 3.72675 4.25 3.08333 4.25C2.43992 4.25 1.91667 3.72675 1.91667 3.08333C1.91667 2.43992 2.43992 1.91667 3.08333 1.91667C3.72675 1.91667 4.25 2.43992 4.25 3.08333ZM6.58333 8.91667C6.58333 10.2035 7.62983 11.25 8.91667 11.25C10.2035 11.25 11.25 10.2035 11.25 8.91667C11.25 7.62983 10.2035 6.58333 8.91667 6.58333C7.62983 6.58333 6.58333 7.62983 6.58333 8.91667ZM10.0833 8.91667C10.0833 9.56008 9.56008 10.0833 8.91667 10.0833C8.27325 10.0833 7.75 9.56008 7.75 8.91667C7.75 8.27325 8.27325 7.75 8.91667 7.75C9.56008 7.75 10.0833 8.27325 10.0833 8.91667Z" fill="white"/>
</svg>
