<svg width="16" height="16" viewBox="0 0 16 16" fill="none" xmlns="http://www.w3.org/2000/svg">
<path d="M14.579 8.86625L13.553 5.78825C13.4042 5.34011 13.1179 4.95027 12.7348 4.67413C12.3518 4.39799 11.8915 4.24958 11.4193 4.25H4.58075C4.10854 4.24958 3.64821 4.39799 3.26516 4.67413C2.88212 4.95027 2.59584 5.34011 2.447 5.78825L1.421 8.86625C1.14823 8.98049 0.915284 9.17278 0.751426 9.41897C0.587568 9.66516 0.500098 9.95427 0.5 10.25V12.5C0.5 13.0535 0.803 13.532 1.25 13.7922V14.75C1.25 14.9489 1.32902 15.1397 1.46967 15.2803C1.61032 15.421 1.80109 15.5 2 15.5H2.75C2.94891 15.5 3.13968 15.421 3.28033 15.2803C3.42098 15.1397 3.5 14.9489 3.5 14.75V14H12.5V14.75C12.5 14.9489 12.579 15.1397 12.7197 15.2803C12.8603 15.421 13.0511 15.5 13.25 15.5H14C14.1989 15.5 14.3897 15.421 14.5303 15.2803C14.671 15.1397 14.75 14.9489 14.75 14.75V13.7922C14.9775 13.6618 15.1667 13.4736 15.2983 13.2467C15.43 13.0199 15.4996 12.7623 15.5 12.5V10.25C15.5 9.62675 15.1197 9.0935 14.579 8.86625ZM4.58075 5.75H11.4185C11.576 5.74996 11.7295 5.79949 11.8572 5.89157C11.985 5.98364 12.0805 6.1136 12.1302 6.263L12.9598 8.75H3.04025L3.869 6.263C3.97175 5.95625 4.25825 5.75 4.58075 5.75ZM3.125 12.5C2.97721 12.5 2.83088 12.4708 2.69437 12.4142C2.55785 12.3576 2.43382 12.2747 2.32935 12.1701C2.11837 11.959 1.9999 11.6727 2 11.3743C2.0001 11.0758 2.11876 10.7896 2.32988 10.5786C2.541 10.3676 2.82728 10.2492 3.12575 10.2492C3.42422 10.2493 3.71042 10.368 3.9214 10.5791C4.13238 10.7902 4.25085 11.0765 4.25075 11.375C4.25065 11.6735 4.13199 11.9597 3.92087 12.1707C3.70975 12.3816 3.42347 12.5001 3.125 12.5ZM12.875 12.5C12.5765 12.4999 12.2903 12.3812 12.0793 12.1701C11.8684 11.959 11.7499 11.6727 11.75 11.3743C11.7501 11.0758 11.8688 10.7896 12.0799 10.5786C12.291 10.3676 12.5773 10.2492 12.8757 10.2492C13.1742 10.2493 13.4604 10.368 13.6714 10.5791C13.8824 10.7902 14.0008 11.0765 14.0007 11.375C14.0007 11.6735 13.882 11.9597 13.6709 12.1707C13.4598 12.3816 13.1735 12.5001 12.875 12.5ZM2.95775 2.75C3.218 3.19625 3.6965 3.5 4.25 3.5C4.8035 3.5 5.282 3.19625 5.54225 2.75H10.4585C10.718 3.19625 11.1965 3.5 11.75 3.5C12.3035 3.5 12.782 3.19625 13.0422 2.75H11.75V1.25H13.0422C12.782 0.80375 12.3035 0.5 11.75 0.5C11.1965 0.5 10.718 0.80375 10.4578 1.25H5.54225C5.282 0.80375 4.8035 0.5 4.25 0.5C3.6965 0.5 3.218 0.80375 2.95775 1.25H4.25V2.75H2.95775Z" fill="white"/>
</svg>
