<svg width="16" height="16" viewBox="0 0 16 16" fill="none" xmlns="http://www.w3.org/2000/svg">
<path d="M2.84189 14.75C3.12539 15.0335 3.50189 15.1895 3.90239 15.1895C4.30289 15.1895 4.67939 15.0335 4.96289 14.75L8.21489 11.498C8.75349 11.6641 9.31401 11.7483 9.87764 11.7478C10.6164 11.75 11.3483 11.6057 12.0309 11.3231C12.7134 11.0405 13.3332 10.6253 13.8541 10.1015C14.6407 9.3172 15.1768 8.31717 15.3947 7.22801C15.6126 6.13885 15.5024 5.00953 15.0781 3.98301L14.6506 2.94201L11.4676 6.12426L9.87689 4.53276L13.0591 1.35051L12.0174 0.922255C11.3377 0.642457 10.6097 0.498987 9.87464 0.500005C8.37239 0.500005 6.96014 1.08501 5.89889 2.14701C5.17363 2.86986 4.66008 3.77746 4.41391 4.7714C4.16774 5.76535 4.19834 6.80771 4.50239 7.78551L1.25039 11.0375C0.96937 11.3189 0.811523 11.7003 0.811523 12.098C0.811523 12.4957 0.96937 12.8771 1.25039 13.1585L2.84189 14.75ZM6.25289 8.15676L6.06239 7.69476C5.75089 6.94202 5.66985 6.11376 5.82954 5.31493C5.98922 4.51609 6.38245 3.78264 6.95939 3.20751C7.38814 2.77597 7.90765 2.44537 8.48016 2.23974C9.05267 2.03412 9.6638 1.95863 10.2691 2.01876L7.75439 4.53351L11.4661 8.24601L13.9824 5.72976C14.0411 6.33546 13.9648 6.94665 13.759 7.51933C13.5531 8.09202 13.223 8.61196 12.7921 9.04176C11.6296 10.2043 9.81914 10.562 8.30414 9.93876L7.84289 9.74751L3.90239 13.6895H3.90314L3.90239 14.4395V13.6895L2.31089 12.098L6.25289 8.15676Z" fill="white"/>
</svg>
