<svg width="22" height="15" viewBox="0 0 22 15" fill="none" xmlns="http://www.w3.org/2000/svg">
<path d="M10.9503 3.59042L10.1523 1.19642C10.0366 0.847865 9.81391 0.544658 9.51598 0.32988C9.21806 0.115101 8.86002 -0.00032562 8.49275 6.89952e-07H3.17392C2.80664 -0.00032562 2.44861 0.115101 2.15068 0.32988C1.85276 0.544658 1.63009 0.847865 1.51433 1.19642L0.716333 3.59042C0.50413 3.67921 0.32291 3.82875 0.195456 4.02024C0.068001 4.21174 -2.80525e-07 4.43664 0 4.66667V7.58333C0 8.01383 0.235667 8.386 0.583333 8.58842V9.91667C0.583333 10.0714 0.644791 10.2198 0.754188 10.3291C0.863584 10.4385 1.01196 10.5 1.16667 10.5H1.75C1.90471 10.5 2.05308 10.4385 2.16248 10.3291C2.27187 10.2198 2.33333 10.0714 2.33333 9.91667V8.75H9.33333V9.91667C9.33333 10.0714 9.39479 10.2198 9.50419 10.3291C9.61358 10.4385 9.76196 10.5 9.91667 10.5H10.5C10.6547 10.5 10.8031 10.4385 10.9125 10.3291C11.0219 10.2198 11.0833 10.0714 11.0833 9.91667V8.58842C11.2603 8.48692 11.4074 8.34058 11.5098 8.16413C11.6122 7.98767 11.6663 7.78735 11.6667 7.58333V4.66667C11.6667 4.43664 11.5987 4.21174 11.4712 4.02024C11.3438 3.82875 11.1625 3.67921 10.9503 3.59042ZM3.17392 1.16667H8.49217C8.74358 1.16667 8.96642 1.3265 9.04575 1.56567L9.69092 3.5H1.97575L2.62033 1.56567C2.65904 1.44946 2.73333 1.34839 2.8327 1.27678C2.93206 1.20516 3.05144 1.16664 3.17392 1.16667ZM2.04167 7C1.92672 6.99996 1.81291 6.97728 1.70673 6.93326C1.60055 6.88924 1.50408 6.82473 1.42283 6.74343C1.34158 6.66212 1.27713 6.56561 1.23318 6.4594C1.18923 6.35319 1.16663 6.23936 1.16667 6.12442C1.1667 6.00947 1.18938 5.89566 1.23341 5.78948C1.27743 5.6833 1.34193 5.58683 1.42324 5.50558C1.50455 5.42433 1.60106 5.35989 1.70727 5.31593C1.81348 5.27198 1.9273 5.24938 2.04225 5.24942C2.27439 5.24949 2.49699 5.34179 2.66109 5.50599C2.82518 5.67019 2.91733 5.89286 2.91725 6.125C2.91717 6.35714 2.82488 6.57975 2.66068 6.74384C2.49647 6.90793 2.27381 7.00008 2.04167 7ZM9.625 7C9.51006 6.99996 9.39624 6.97728 9.29006 6.93326C9.18388 6.88924 9.08741 6.82473 9.00616 6.74343C8.92491 6.66212 8.86047 6.56561 8.81652 6.4594C8.77256 6.35319 8.74996 6.23936 8.75 6.12442C8.75004 6.00947 8.77272 5.89566 8.81674 5.78948C8.86076 5.6833 8.92527 5.58683 9.00657 5.50558C9.08788 5.42433 9.18439 5.35989 9.2906 5.31593C9.39681 5.27198 9.51064 5.24938 9.62558 5.24942C9.85772 5.24949 10.0803 5.34179 10.2444 5.50599C10.4085 5.67019 10.5007 5.89286 10.5006 6.125C10.5005 6.35714 10.4082 6.57975 10.244 6.74384C10.0798 6.90793 9.85714 7.00008 9.625 7Z" fill="white"/>
<path d="M20.9503 7.59042L20.1523 5.19642C20.0366 4.84786 19.8139 4.54466 19.516 4.32988C19.2181 4.1151 18.86 3.99967 18.4928 4H13.1739C12.8066 3.99967 12.4486 4.1151 12.1507 4.32988C11.8528 4.54466 11.6301 4.84786 11.5143 5.19642L10.7163 7.59042C10.5041 7.67921 10.3229 7.82875 10.1955 8.02024C10.068 8.21174 10 8.43664 10 8.66667V11.5833C10 12.0138 10.2357 12.386 10.5833 12.5884V13.9167C10.5833 14.0714 10.6448 14.2198 10.7542 14.3291C10.8636 14.4385 11.012 14.5 11.1667 14.5H11.75C11.9047 14.5 12.0531 14.4385 12.1625 14.3291C12.2719 14.2198 12.3333 14.0714 12.3333 13.9167V12.75H19.3333V13.9167C19.3333 14.0714 19.3948 14.2198 19.5042 14.3291C19.6136 14.4385 19.762 14.5 19.9167 14.5H20.5C20.6547 14.5 20.8031 14.4385 20.9125 14.3291C21.0219 14.2198 21.0833 14.0714 21.0833 13.9167V12.5884C21.2603 12.4869 21.4074 12.3406 21.5098 12.1641C21.6122 11.9877 21.6663 11.7874 21.6667 11.5833V8.66667C21.6667 8.43664 21.5987 8.21174 21.4712 8.02024C21.3438 7.82875 21.1625 7.67921 20.9503 7.59042ZM13.1739 5.16667H18.4922C18.7436 5.16667 18.9664 5.3265 19.0457 5.56567L19.6909 7.5H11.9757L12.6203 5.56567C12.659 5.44946 12.7333 5.34839 12.8327 5.27678C12.9321 5.20516 13.0514 5.16664 13.1739 5.16667ZM12.0417 11C11.9267 11 11.8129 10.9773 11.7067 10.9333C11.6005 10.8892 11.5041 10.8247 11.4228 10.7434C11.3416 10.6621 11.2771 10.5656 11.2332 10.4594C11.1892 10.3532 11.1666 10.2394 11.1667 10.1244C11.1667 10.0095 11.1894 9.89566 11.2334 9.78948C11.2774 9.6833 11.3419 9.58683 11.4232 9.50558C11.5045 9.42433 11.6011 9.35989 11.7073 9.31593C11.8135 9.27198 11.9273 9.24938 12.0422 9.24942C12.2744 9.24949 12.497 9.34179 12.6611 9.50599C12.8252 9.67019 12.9173 9.89286 12.9172 10.125C12.9172 10.3571 12.8249 10.5797 12.6607 10.7438C12.4965 10.9079 12.2738 11.0001 12.0417 11ZM19.625 11C19.5101 11 19.3962 10.9773 19.2901 10.9333C19.1839 10.8892 19.0874 10.8247 19.0062 10.7434C18.9249 10.6621 18.8605 10.5656 18.8165 10.4594C18.7726 10.3532 18.75 10.2394 18.75 10.1244C18.75 10.0095 18.7727 9.89566 18.8167 9.78948C18.8608 9.6833 18.9253 9.58683 19.0066 9.50558C19.0879 9.42433 19.1844 9.35989 19.2906 9.31593C19.3968 9.27198 19.5106 9.24938 19.6256 9.24942C19.8577 9.24949 20.0803 9.34179 20.2444 9.50599C20.4085 9.67019 20.5007 9.89286 20.5006 10.125C20.5005 10.3571 20.4082 10.5797 20.244 10.7438C20.0798 10.9079 19.8571 11.0001 19.625 11Z" fill="white"/>
</svg>
