<svg width="20" height="16" viewBox="0 0 20 16" fill="none" xmlns="http://www.w3.org/2000/svg">
<path d="M0 12.2348C0 12.5589 0 13.5199 0 13.7317C0 13.9435 0.125684 14.3057 0.580406 14.3057C0.929214 14.3057 3.71403 14.3057 4.98994 14.3057C5.37617 14.3057 5.62542 14.3057 5.62542 14.3057H5.73486C5.73486 14.3057 5.8083 14.3057 5.92621 14.3057C5.92621 14.6475 5.92621 14.9582 5.92621 15.0775C5.92621 15.3395 6.08155 15.7878 6.64431 15.7878C7.07643 15.7878 10.5342 15.7878 12.1137 15.7878C12.5917 15.7878 12.9017 15.7878 12.9017 15.7878H13.0372C13.0372 15.7878 13.3409 15.7878 13.8118 15.7878C15.3857 15.7878 18.8491 15.7878 19.2819 15.7878C19.844 15.7878 20 15.3402 20 15.0775C20 14.8148 20 13.6265 20 13.2254C20 12.8244 19.8581 12.3795 19.2819 12.1324C18.5532 11.8132 16.5995 11.1072 15.3723 10.7449C15.2777 10.7146 15.2614 10.7096 15.2614 10.2888C15.2614 9.83549 15.3137 9.51422 15.4238 9.27839C15.5756 8.95641 15.755 8.41413 15.8185 7.92834C15.9993 7.71934 16.2443 7.30698 16.4018 6.5211C16.5409 5.82843 16.4759 5.57636 16.3841 5.33982C16.3742 5.3151 16.3636 5.29039 16.3566 5.26214C16.3227 5.10327 16.3693 4.2595 16.4893 3.60425C16.5712 3.15517 16.4681 2.20054 15.8496 1.40972C15.4591 0.910512 14.7114 0.29692 13.3691 0.212895L12.6207 0.212189C11.2558 0.297626 10.5087 0.910512 10.1183 1.40972C9.49974 2.19983 9.39735 3.15517 9.47926 3.60425C9.59788 4.25879 9.6459 5.10257 9.61059 5.26497C9.60353 5.28968 9.59294 5.3144 9.58376 5.33911C9.49197 5.57565 9.42771 5.82772 9.5654 6.5204C9.72286 7.30628 9.96858 7.71863 10.1486 7.92763C10.2129 8.41342 10.3922 8.9557 10.5433 9.27768C10.6831 9.57424 10.8258 9.92446 10.8258 10.2726C10.8258 10.6941 10.8095 10.699 10.7086 10.7308C10.4558 10.805 10.1698 10.8946 9.86902 10.9907C9.16011 10.7273 8.26831 10.4194 7.62154 10.2281C7.54457 10.2041 7.53186 10.1998 7.53186 9.8595C7.53186 9.49304 7.57423 9.2332 7.6632 9.04255C7.78605 8.782 7.9308 8.34423 7.98305 7.95094C8.12851 7.78218 8.32692 7.44891 8.45402 6.81343C8.56628 6.2535 8.51333 6.05014 8.43919 5.85879C8.43142 5.83831 8.42295 5.81854 8.4173 5.79595C8.38976 5.66744 8.42718 4.98536 8.52321 4.45579C8.58888 4.09286 8.50697 3.3211 8.00706 2.68139C7.69144 2.27821 7.08703 1.78253 6.00318 1.71334H5.39876C4.29585 1.78183 3.69214 2.27821 3.37652 2.68139C2.87661 3.3211 2.79329 4.09286 2.86037 4.45579C2.95569 4.98536 2.99523 5.66744 2.96699 5.79877C2.96134 5.81854 2.95216 5.83831 2.9451 5.85879C2.87026 6.05014 2.81871 6.2535 2.93027 6.81343C3.05737 7.44891 3.25578 7.78218 3.40124 7.95094C3.45349 8.34423 3.59823 8.7813 3.72039 9.04255C3.83336 9.28262 3.94916 9.56576 3.94916 9.84679C3.94916 10.1878 3.93645 10.1914 3.85455 10.2175C2.89568 10.5006 1.34581 11.0387 0.68985 11.3133C0.223831 11.5132 0 11.9107 0 12.2348ZM6.6662 13.2261C6.6662 13.116 6.77635 12.8943 7.07149 12.7679C7.85031 12.4424 9.75887 11.7843 10.9183 11.4426C11.5665 11.2392 11.5665 10.6814 11.5665 10.274C11.5665 9.78041 11.3878 9.33487 11.2127 8.96347C11.092 8.70504 10.9366 8.23973 10.8823 7.83161L10.8533 7.61272L10.7086 7.44537C10.6288 7.35288 10.4282 7.06338 10.2913 6.37565C10.1839 5.83831 10.2312 5.71616 10.2729 5.60813L10.2736 5.60672L10.28 5.58836C10.2955 5.55023 10.3089 5.5121 10.3195 5.47468L10.3273 5.44785L10.3329 5.42031C10.4085 5.06656 10.3096 4.04696 10.2058 3.47291C10.1585 3.21448 10.2178 2.48297 10.7001 1.86656C11.1287 1.31863 11.7825 1.01148 12.6432 0.952877L13.3444 0.953583C14.3986 1.0256 14.9705 1.4888 15.2657 1.86656C15.7479 2.48297 15.8065 3.21448 15.7599 3.4715C15.6583 4.03143 15.5573 5.06726 15.6321 5.41678L15.6357 5.43231L15.6399 5.44785C15.6554 5.50786 15.6745 5.56153 15.6964 5.61519C15.7345 5.71475 15.7825 5.83902 15.6752 6.37494C15.5375 7.06338 15.3377 7.35147 15.2579 7.44326L15.1124 7.61131L15.0842 7.83161C15.0298 8.24043 14.8752 8.70363 14.753 8.96206C14.5942 9.30169 14.52 9.72252 14.52 10.2881C14.52 10.6948 14.52 11.2512 15.147 11.4503C16.3417 11.8034 18.2821 12.5031 18.9839 12.8102C19.1929 12.8999 19.2586 13.0002 19.2586 13.2247V15.0457H6.67043L6.6669 13.2247L6.6662 13.2261ZM0.740688 12.2348C0.742101 12.2058 0.787997 12.078 0.981465 11.9947C1.61624 11.7285 3.14634 11.1997 4.06355 10.9285C4.68914 10.7294 4.68914 10.1772 4.68914 9.84749C4.68914 9.42172 4.53804 9.04255 4.38976 8.72764C4.29373 8.52216 4.17511 8.155 4.13486 7.8542L4.10591 7.63531L3.96187 7.46797C3.91668 7.41643 3.76346 7.2053 3.65613 6.66797C3.57705 6.27468 3.60883 6.19277 3.63425 6.12711L3.63848 6.11722L3.64131 6.10734C3.65684 6.06921 3.66673 6.03884 3.6752 6.00848L3.68367 5.98094L3.68932 5.95341C3.76205 5.61166 3.65755 4.70857 3.58764 4.32304C3.55516 4.14158 3.60318 3.59295 3.95975 3.13681C4.27961 2.72869 4.77105 2.49851 5.42207 2.45332H5.97846C6.77423 2.50981 7.20282 2.85508 7.42312 3.13681C7.77899 3.59224 7.82771 4.14229 7.79523 4.32304C7.72039 4.73046 7.62295 5.62296 7.69214 5.94988L7.69568 5.96541L7.69921 5.98094C7.71333 6.03319 7.72957 6.0798 7.74793 6.12711C7.77334 6.19207 7.80512 6.27538 7.72674 6.66797C7.61871 7.20601 7.46549 7.41572 7.42101 7.46726L7.27696 7.63461L7.24801 7.8535C7.20777 8.1557 7.08914 8.52216 6.9917 8.72764C6.85402 9.02207 6.78976 9.38147 6.78976 9.8595C6.78976 10.1899 6.78976 10.7428 7.39629 10.9349C7.7797 11.0486 8.25702 11.2053 8.72869 11.3698C7.94987 11.6367 7.20706 11.9072 6.77776 12.0865C6.20018 12.3343 5.9241 12.8244 5.9241 13.2254C5.9241 13.3087 5.9241 13.4281 5.9241 13.5651H0.739276V12.2348H0.740688Z" fill="white"/>
</svg>
