<svg width="126" height="28" viewBox="0 0 126 28" fill="none" xmlns="http://www.w3.org/2000/svg">
<path d="M11.0013 23.2844L19.2089 19.1503L20.0305 6.74832L11.0013 9.22379V23.2844ZM1.15491 19.1503L9.3625 23.2844V9.22379L0.33334 6.74722L1.15491 19.1503ZM10.1835 2.61306L0.33334 5.09181L10.1835 7.57111L20.0343 5.09181L10.1835 2.61306Z" fill="#20B758"/>
<path d="M27.0705 1.29911V0.146674H35.057V1.29911H31.7085V10.8748H30.419V1.29911H27.0705Z" fill="white"/>
<path d="M37.0471 10.8748V0.146674H40.6452C41.4771 0.146674 42.16 0.289856 42.6938 0.576219C43.2276 0.859091 43.6228 1.24848 43.8793 1.74437C44.1358 2.24027 44.2641 2.80427 44.2641 3.43636C44.2641 4.06846 44.1358 4.62896 43.8793 5.11788C43.6228 5.60679 43.2294 5.99094 42.699 6.27032C42.1686 6.5462 41.491 6.68415 40.666 6.68415H37.7542V5.51075H40.6244C41.1929 5.51075 41.6504 5.42694 41.9971 5.25931C42.3472 5.09169 42.6002 4.85421 42.7562 4.5469C42.9156 4.23609 42.9954 3.86591 42.9954 3.43636C42.9954 3.00682 42.9156 2.6314 42.7562 2.31012C42.5967 1.98883 42.342 1.74088 41.9919 1.56627C41.6418 1.38817 41.179 1.29911 40.6036 1.29911H38.3366V10.8748H37.0471ZM42.0595 6.05554L44.68 10.8748H43.1826L40.6036 6.05554H42.0595Z" fill="white"/>
<path d="M53.4009 0.146674H54.6904V7.24989C54.6904 7.98326 54.5188 8.63805 54.1757 9.21427C53.836 9.787 53.3559 10.2392 52.7354 10.571C52.1149 10.8993 51.387 11.0634 50.5516 11.0634C49.7162 11.0634 48.9883 10.8993 48.3678 10.571C47.7473 10.2392 47.2655 9.787 46.9223 9.21427C46.5826 8.63805 46.4128 7.98326 46.4128 7.24989V0.146674H47.7022V7.14512C47.7022 7.66896 47.8166 8.13517 48.0454 8.54376C48.2742 8.94886 48.6 9.2684 49.0229 9.50238C49.4493 9.73287 49.9588 9.84812 50.5516 9.84812C51.1443 9.84812 51.6539 9.73287 52.0803 9.50238C52.5066 9.2684 52.8325 8.94886 53.0578 8.54376C53.2865 8.13517 53.4009 7.66896 53.4009 7.14512V0.146674Z" fill="white"/>
<path d="M65.8343 3.49922H64.5448C64.4686 3.12555 64.3351 2.79728 64.1445 2.51441C63.9573 2.23154 63.7285 1.99407 63.4581 1.802C63.1912 1.60643 62.8949 1.45976 62.569 1.36197C62.2432 1.26419 61.9035 1.2153 61.5499 1.2153C60.9052 1.2153 60.3211 1.37943 59.7977 1.70771C59.2777 2.03598 58.8635 2.51965 58.555 3.15873C58.2499 3.79781 58.0974 4.58182 58.0974 5.51075C58.0974 6.43969 58.2499 7.2237 58.555 7.86278C58.8635 8.50186 59.2777 8.98553 59.7977 9.3138C60.3211 9.64207 60.9052 9.80621 61.5499 9.80621C61.9035 9.80621 62.2432 9.75732 62.569 9.65954C62.8949 9.56175 63.1912 9.41682 63.4581 9.22475C63.7285 9.02919 63.9573 8.78997 64.1445 8.5071C64.3351 8.22073 64.4686 7.89246 64.5448 7.52228H65.8343C65.7373 8.07057 65.5605 8.56122 65.304 8.99426C65.0475 9.4273 64.7286 9.79573 64.3473 10.0996C63.966 10.3999 63.5379 10.6286 63.063 10.7858C62.5915 10.9429 62.0872 11.0215 61.5499 11.0215C60.6417 11.0215 59.8341 10.798 59.1269 10.351C58.4198 9.90399 57.8634 9.2684 57.4579 8.44423C57.0523 7.62007 56.8495 6.64224 56.8495 5.51075C56.8495 4.37927 57.0523 3.40144 57.4579 2.57727C57.8634 1.7531 58.4198 1.11752 59.1269 0.67051C59.8341 0.223503 60.6417 0 61.5499 0C62.0872 0 62.5915 0.0785754 63.063 0.235726C63.5379 0.392877 63.966 0.623365 64.3473 0.92719C64.7286 1.22752 65.0475 1.59421 65.304 2.02725C65.5605 2.45679 65.7373 2.94745 65.8343 3.49922Z" fill="white"/>
<path d="M67.918 10.8748V0.146674H69.2075V5.46885H69.3323L74.1159 0.146674H75.8005L71.3289 4.98692L75.8005 10.8748H74.2407L70.5386 5.88792L69.2075 7.39656V10.8748H67.918Z" fill="white"/>
<path d="M81.5876 10.8748V0.146674H85.1857C86.0211 0.146674 86.704 0.298587 87.2343 0.602411C87.7681 0.902744 88.1633 1.30959 88.4198 1.82295C88.6763 2.33631 88.8046 2.90904 88.8046 3.54113C88.8046 4.17323 88.6763 4.7477 88.4198 5.26455C88.1668 5.7814 87.7751 6.19349 87.2447 6.5008C86.7144 6.80463 86.0349 6.95654 85.2065 6.95654H82.6275V5.8041H85.1649C85.7368 5.8041 86.1961 5.70457 86.5428 5.50552C86.8894 5.30646 87.1407 5.03756 87.2967 4.69881C87.4562 4.35657 87.5359 3.97068 87.5359 3.54113C87.5359 3.11159 87.4562 2.72744 87.2967 2.38869C87.1407 2.04994 86.8877 1.78453 86.5376 1.59246C86.1875 1.3969 85.723 1.29911 85.1441 1.29911H82.8771V10.8748H81.5876Z" fill="white"/>
<path d="M90.2318 10.8748H88.88L92.79 0.146674H94.1211L98.0311 10.8748H96.6793L93.4971 1.8439H93.4139L90.2318 10.8748ZM90.731 6.68415H96.1801V7.83659H90.731V6.68415Z" fill="white"/>
<path d="M99.6898 10.8748V0.146674H103.288C104.12 0.146674 104.803 0.289856 105.336 0.576219C105.87 0.859091 106.265 1.24848 106.522 1.74437C106.778 2.24027 106.907 2.80427 106.907 3.43636C106.907 4.06846 106.778 4.62896 106.522 5.11788C106.265 5.60679 105.872 5.99094 105.342 6.27032C104.811 6.5462 104.134 6.68415 103.309 6.68415H100.397V5.51075H103.267C103.836 5.51075 104.293 5.42694 104.64 5.25931C104.99 5.09169 105.243 4.85421 105.399 4.5469C105.558 4.23609 105.638 3.86591 105.638 3.43636C105.638 3.00682 105.558 2.6314 105.399 2.31012C105.239 1.98883 104.985 1.74088 104.635 1.56627C104.284 1.38817 103.822 1.29911 103.246 1.29911H100.979V10.8748H99.6898ZM104.702 6.05554L107.323 10.8748H105.825L103.246 6.05554H104.702Z" fill="white"/>
<path d="M108.473 1.29911V0.146674H116.46V1.29911H113.111V10.8748H111.822V1.29911H108.473Z" fill="white"/>
<path d="M124.273 2.82871C124.211 2.29789 123.958 1.88581 123.514 1.59246C123.07 1.29911 122.526 1.15244 121.881 1.15244C121.41 1.15244 120.997 1.22927 120.644 1.38293C120.294 1.53659 120.02 1.74787 119.822 2.01677C119.628 2.28567 119.531 2.59124 119.531 2.93348C119.531 3.21984 119.599 3.46605 119.734 3.67209C119.873 3.87464 120.049 4.04401 120.264 4.18021C120.479 4.31292 120.705 4.42292 120.94 4.51023C121.176 4.59404 121.393 4.66214 121.59 4.71452L122.672 5.00787C122.949 5.08121 123.258 5.18248 123.597 5.3117C123.94 5.44091 124.268 5.61727 124.58 5.84077C124.895 6.06078 125.155 6.34365 125.36 6.68938C125.564 7.03512 125.667 7.45942 125.667 7.96231C125.667 8.54202 125.516 9.06585 125.214 9.53381C124.916 10.0018 124.479 10.3737 123.904 10.6496C123.332 10.9255 122.637 11.0634 121.819 11.0634C121.056 11.0634 120.396 10.9394 119.838 10.6915C119.283 10.4435 118.847 10.0978 118.528 9.6543C118.212 9.21078 118.034 8.69568 117.992 8.10898H119.323C119.358 8.51408 119.493 8.84934 119.729 9.11475C119.968 9.37666 120.27 9.57223 120.634 9.70144C121.001 9.82716 121.396 9.89002 121.819 9.89002C122.311 9.89002 122.753 9.8097 123.145 9.64906C123.537 9.48492 123.847 9.25793 124.076 8.96807C124.304 8.67472 124.419 8.33248 124.419 7.94135C124.419 7.58514 124.32 7.29529 124.122 7.07179C123.925 6.84828 123.665 6.66669 123.342 6.527C123.02 6.38731 122.672 6.26508 122.297 6.16031L120.987 5.78315C120.155 5.54218 119.497 5.1982 119.011 4.75119C118.526 4.30419 118.283 3.71924 118.283 2.99634C118.283 2.39568 118.444 1.87184 118.767 1.42483C119.093 0.974335 119.529 0.625111 120.077 0.377162C120.628 0.125721 121.244 0 121.923 0C122.609 0 123.219 0.123974 123.753 0.371923C124.287 0.61638 124.71 0.951635 125.022 1.37769C125.337 1.80374 125.504 2.28742 125.521 2.82871H124.273Z" fill="white"/>
<path d="M27.6528 27.8114V17.0833H31.2509C32.0863 17.0833 32.7692 17.2352 33.2995 17.539C33.8334 17.8393 34.2285 18.2462 34.485 18.7595C34.7415 19.2729 34.8698 19.8456 34.8698 20.4777C34.8698 21.1098 34.7415 21.6843 34.485 22.2011C34.232 22.718 33.8403 23.1301 33.3099 23.4374C32.7796 23.7412 32.1002 23.8931 31.2717 23.8931H28.6928V22.7407H31.2301C31.8021 22.7407 32.2614 22.6412 32.608 22.4421C32.9546 22.243 33.2059 21.9741 33.3619 21.6354C33.5214 21.2932 33.6011 20.9073 33.6011 20.4777C33.6011 20.0482 33.5214 19.664 33.3619 19.3253C33.2059 18.9865 32.9529 18.7211 32.6028 18.529C32.2527 18.3335 31.7882 18.2357 31.2093 18.2357H28.9423V27.8114H27.6528Z" fill="#20B758"/>
<path d="M45.9318 22.4473C45.9318 23.5788 45.729 24.5567 45.3235 25.3808C44.9179 26.205 44.3615 26.8406 43.6544 27.2876C42.9473 27.7346 42.1396 27.9581 41.2314 27.9581C40.3232 27.9581 39.5156 27.7346 38.8084 27.2876C38.1013 26.8406 37.545 26.205 37.1394 25.3808C36.7338 24.5567 36.531 23.5788 36.531 22.4473C36.531 21.3159 36.7338 20.338 37.1394 19.5139C37.545 18.6897 38.1013 18.0541 38.8084 17.6071C39.5156 17.1601 40.3232 16.9366 41.2314 16.9366C42.1396 16.9366 42.9473 17.1601 43.6544 17.6071C44.3615 18.0541 44.9179 18.6897 45.3235 19.5139C45.729 20.338 45.9318 21.3159 45.9318 22.4473ZM44.6839 22.4473C44.6839 21.5184 44.5297 20.7344 44.2212 20.0953C43.9161 19.4562 43.5019 18.9726 42.9785 18.6443C42.4585 18.316 41.8762 18.1519 41.2314 18.1519C40.5867 18.1519 40.0026 18.316 39.4792 18.6443C38.9592 18.9726 38.545 19.4562 38.2365 20.0953C37.9315 20.7344 37.7789 21.5184 37.7789 22.4473C37.7789 23.3763 37.9315 24.1603 38.2365 24.7994C38.545 25.4384 38.9592 25.9221 39.4792 26.2504C40.0026 26.5787 40.5867 26.7428 41.2314 26.7428C41.8762 26.7428 42.4585 26.5787 42.9785 26.2504C43.5019 25.9221 43.9161 25.4384 44.2212 24.7994C44.5297 24.1603 44.6839 23.3763 44.6839 22.4473Z" fill="#20B758"/>
<path d="M53.9235 19.7653C53.8611 19.2345 53.6081 18.8224 53.1644 18.529C52.7207 18.2357 52.1764 18.089 51.5317 18.089C51.0603 18.089 50.6478 18.1659 50.2942 18.3195C49.9441 18.4732 49.6703 18.6845 49.4727 18.9534C49.2786 19.2223 49.1815 19.5278 49.1815 19.8701C49.1815 20.1564 49.2491 20.4026 49.3843 20.6087C49.523 20.8112 49.6997 20.9806 49.9146 21.1168C50.1296 21.2495 50.3549 21.3595 50.5906 21.4468C50.8263 21.5306 51.0429 21.5987 51.2405 21.6511L52.322 21.9445C52.5993 22.0178 52.9078 22.1191 53.2476 22.2483C53.5907 22.3775 53.9183 22.5539 54.2303 22.7774C54.5457 22.9974 54.8057 23.2802 55.0102 23.626C55.2147 23.9717 55.317 24.396 55.317 24.8989C55.317 25.4786 55.1662 26.0024 54.8646 26.4704C54.5665 26.9384 54.1297 27.3103 53.5543 27.5862C52.9824 27.8621 52.2874 28 51.4693 28C50.7067 28 50.0464 27.876 49.4883 27.6281C48.9337 27.3801 48.4969 27.0344 48.178 26.5909C47.8626 26.1474 47.684 25.6323 47.6425 25.0456H48.9735C49.0082 25.4507 49.1434 25.7859 49.3791 26.0513C49.6183 26.3132 49.9198 26.5088 50.2838 26.638C50.6513 26.7637 51.0464 26.8266 51.4693 26.8266C51.9615 26.8266 52.4035 26.7463 52.7952 26.5856C53.1869 26.4215 53.4971 26.1945 53.7259 25.9047C53.9547 25.6113 54.0691 25.2691 54.0691 24.8779C54.0691 24.5217 53.9703 24.2319 53.7727 24.0084C53.5751 23.7849 53.3151 23.6033 52.9928 23.4636C52.6704 23.3239 52.322 23.2017 51.9477 23.0969L50.6374 22.7197C49.8055 22.4788 49.1469 22.1348 48.6616 21.6878C48.1763 21.2408 47.9336 20.6558 47.9336 19.9329C47.9336 19.3323 48.0948 18.8084 48.4172 18.3614C48.743 17.9109 49.1798 17.5617 49.7275 17.3137C50.2786 17.0623 50.8939 16.9366 51.5733 16.9366C52.2596 16.9366 52.8697 17.0606 53.4035 17.3085C53.9374 17.553 54.3603 17.8882 54.6722 18.3143C54.9877 18.7403 55.154 19.224 55.1714 19.7653H53.9235Z" fill="#20B758"/>
<path d="M67.3786 19.7653C67.3162 19.2345 67.0631 18.8224 66.6194 18.529C66.1758 18.2357 65.6315 18.089 64.9868 18.089C64.5154 18.089 64.1029 18.1659 63.7493 18.3195C63.3992 18.4732 63.1254 18.6845 62.9278 18.9534C62.7337 19.2223 62.6366 19.5278 62.6366 19.8701C62.6366 20.1564 62.7042 20.4026 62.8394 20.6087C62.978 20.8112 63.1548 20.9806 63.3697 21.1168C63.5847 21.2495 63.81 21.3595 64.0457 21.4468C64.2814 21.5306 64.498 21.5987 64.6956 21.6511L65.7771 21.9445C66.0544 22.0178 66.3629 22.1191 66.7026 22.2483C67.0458 22.3775 67.3734 22.5539 67.6854 22.7774C68.0008 22.9974 68.2608 23.2802 68.4653 23.626C68.6698 23.9717 68.7721 24.396 68.7721 24.8989C68.7721 25.4786 68.6213 26.0024 68.3197 26.4704C68.0216 26.9384 67.5848 27.3103 67.0094 27.5862C66.4375 27.8621 65.7425 28 64.9244 28C64.1618 28 63.5015 27.876 62.9434 27.6281C62.3888 27.3801 61.952 27.0344 61.6331 26.5909C61.3177 26.1474 61.1391 25.6323 61.0975 25.0456H62.4286C62.4633 25.4507 62.5985 25.7859 62.8342 26.0513C63.0734 26.3132 63.3749 26.5088 63.7389 26.638C64.1063 26.7637 64.5015 26.8266 64.9244 26.8266C65.4166 26.8266 65.8586 26.7463 66.2503 26.5856C66.642 26.4215 66.9522 26.1945 67.181 25.9047C67.4098 25.6113 67.5242 25.2691 67.5242 24.8779C67.5242 24.5217 67.4254 24.2319 67.2278 24.0084C67.0302 23.7849 66.7702 23.6033 66.4479 23.4636C66.1255 23.3239 65.7771 23.2017 65.4028 23.0969L64.0925 22.7197C63.2606 22.4788 62.6019 22.1348 62.1167 21.6878C61.6314 21.2408 61.3887 20.6558 61.3887 19.9329C61.3887 19.3323 61.5499 18.8084 61.8723 18.3614C62.1981 17.9109 62.6349 17.5617 63.1826 17.3137C63.7337 17.0623 64.349 16.9366 65.0284 16.9366C65.7147 16.9366 66.3248 17.0606 66.8586 17.3085C67.3925 17.553 67.8153 17.8882 68.1273 18.3143C68.4428 18.7403 68.6091 19.224 68.6265 19.7653H67.3786Z" fill="#20B758"/>
<path d="M69.977 17.0833H71.4537L74.4071 22.0911H74.5318L77.4852 17.0833H78.9618L75.1142 23.3902V27.8114H73.8247V23.3902L69.977 17.0833Z" fill="#20B758"/>
<path d="M86.4531 19.7653C86.3907 19.2345 86.1376 18.8224 85.6939 18.529C85.2502 18.2357 84.706 18.089 84.0613 18.089C83.5899 18.089 83.1774 18.1659 82.8238 18.3195C82.4737 18.4732 82.1999 18.6845 82.0023 18.9534C81.8082 19.2223 81.7111 19.5278 81.7111 19.8701C81.7111 20.1564 81.7787 20.4026 81.9139 20.6087C82.0525 20.8112 82.2293 20.9806 82.4442 21.1168C82.6591 21.2495 82.8845 21.3595 83.1202 21.4468C83.3559 21.5306 83.5725 21.5987 83.7701 21.6511L84.8516 21.9445C85.1289 22.0178 85.4374 22.1191 85.7771 22.2483C86.1203 22.3775 86.4479 22.5539 86.7598 22.7774C87.0753 22.9974 87.3353 23.2802 87.5398 23.626C87.7443 23.9717 87.8465 24.396 87.8465 24.8989C87.8465 25.4786 87.6958 26.0024 87.3942 26.4704C87.0961 26.9384 86.6593 27.3103 86.0839 27.5862C85.512 27.8621 84.817 28 83.9989 28C83.2363 28 82.576 27.876 82.0179 27.6281C81.4633 27.3801 81.0265 27.0344 80.7076 26.5909C80.3922 26.1474 80.2136 25.6323 80.172 25.0456H81.5031C81.5378 25.4507 81.673 25.7859 81.9087 26.0513C82.1479 26.3132 82.4494 26.5088 82.8134 26.638C83.1808 26.7637 83.576 26.8266 83.9989 26.8266C84.4911 26.8266 84.9331 26.7463 85.3248 26.5856C85.7165 26.4215 86.0267 26.1945 86.2555 25.9047C86.4843 25.6113 86.5987 25.2691 86.5987 24.8779C86.5987 24.5217 86.4999 24.2319 86.3023 24.0084C86.1047 23.7849 85.8447 23.6033 85.5224 23.4636C85.2 23.3239 84.8516 23.2017 84.4772 23.0969L83.167 22.7197C82.335 22.4788 81.6764 22.1348 81.1911 21.6878C80.7059 21.2408 80.4632 20.6558 80.4632 19.9329C80.4632 19.3323 80.6244 18.8084 80.9468 18.3614C81.2726 17.9109 81.7094 17.5617 82.2571 17.3137C82.8082 17.0623 83.4235 16.9366 84.1029 16.9366C84.7892 16.9366 85.3993 17.0606 85.9331 17.3085C86.4669 17.553 86.8898 17.8882 87.2018 18.3143C87.5172 18.7403 87.6836 19.224 87.701 19.7653H86.4531Z" fill="#20B758"/>
<path d="M89.3843 18.2357V17.0833H97.3708V18.2357H94.0223V27.8114H92.7328V18.2357H89.3843Z" fill="#20B758"/>
<path d="M99.3609 27.8114V17.0833H105.788V18.2357H100.65V21.8606H105.455V23.0131H100.65V26.659H105.871V27.8114H99.3609Z" fill="#20B758"/>
<path d="M108.112 17.0833H109.651L113.27 25.9885H113.394L117.013 17.0833H118.552V27.8114H117.346V19.6605H117.242L113.914 27.8114H112.75L109.422 19.6605H109.318V27.8114H108.112V17.0833Z" fill="#20B758"/>
</svg>
