<svg width="20" height="20" viewBox="0 0 20 20" fill="none" xmlns="http://www.w3.org/2000/svg">
<g clip-path="url(#clip0_16_335)">
<path fill-rule="evenodd" clip-rule="evenodd" d="M10.8965 0C10.7726 1.23867e-05 10.6538 0.0492336 10.5662 0.136843C10.4785 0.224452 10.4293 0.343275 10.4293 0.467174V13.3034C10.4294 13.4068 10.4638 13.5073 10.5271 13.5891L12.4619 16.0903C12.5055 16.1468 12.5616 16.1924 12.6256 16.2239C12.6897 16.2553 12.7601 16.2717 12.8314 16.2717C12.9028 16.2717 12.9732 16.2553 13.0372 16.2239C13.1013 16.1924 13.1573 16.1468 13.201 16.0903L15.1359 13.5891C15.1991 13.5073 15.2334 13.4068 15.2333 13.3034V0.467174C15.2333 0.343275 15.1841 0.224452 15.0965 0.136843C15.0089 0.0492336 14.89 1.23867e-05 14.7661 0H10.8965ZM11.3637 0.934348H14.299V13.1438L12.8316 15.0408L11.3637 13.1436V0.934348ZM0.467174 7.31472C0.343275 7.31474 0.224452 7.36401 0.136843 7.45162C0.0492336 7.53923 1.23867e-05 7.658 0 7.7819V19.5328C1.23867e-05 19.6567 0.0492336 19.7755 0.136843 19.8631C0.224452 19.9507 0.343275 20 0.467174 20H19.2023C19.3262 20 19.445 19.9507 19.5326 19.8631C19.6202 19.7755 19.6695 19.6567 19.6695 19.5328V7.7819C19.6695 7.658 19.6202 7.53923 19.5326 7.45162C19.445 7.36401 19.3262 7.31474 19.2023 7.31472H17.0787C16.9548 7.31472 16.8359 7.36396 16.7483 7.45157C16.6607 7.53918 16.6115 7.658 16.6115 7.7819C16.6115 7.9058 16.6607 8.02467 16.7483 8.11228C16.8359 8.19989 16.9548 8.24907 17.0787 8.24907H18.7351V19.0657H0.934347V8.24907H8.3482C8.4721 8.24907 8.59092 8.19989 8.67853 8.11228C8.76614 8.02467 8.81537 7.9058 8.81537 7.7819C8.81537 7.658 8.76614 7.53918 8.67853 7.45157C8.59092 7.36396 8.4721 7.31472 8.3482 7.31472H0.467174ZM2.9684 15.1014C2.8445 15.1014 2.72564 15.1506 2.63802 15.2382C2.55041 15.3258 2.50123 15.4447 2.50123 15.5686C2.50123 15.6925 2.55041 15.8113 2.63802 15.8989C2.72564 15.9866 2.8445 16.0357 2.9684 16.0357H8.01787C8.14177 16.0357 8.26059 15.9866 8.3482 15.8989C8.43581 15.8113 8.48504 15.6925 8.48504 15.5686C8.48504 15.4447 8.43581 15.3258 8.3482 15.2382C8.26059 15.1506 8.14177 15.1014 8.01787 15.1014H2.9684Z" fill="#20B758"/>
</g>
<defs>
<clipPath id="clip0_16_335">
<rect width="20" height="20" fill="white"/>
</clipPath>
</defs>
</svg>
