<svg width="20" height="20" viewBox="0 0 20 20" fill="none" xmlns="http://www.w3.org/2000/svg">
<path d="M9.99996 18.3333L10.8333 16.6667V14.1667H15C15.4608 14.1667 15.8333 13.7942 15.8333 13.3333V12.0117C15.8333 11.5733 15.655 11.1433 15.345 10.8333L14.1667 9.65496V6.66663C14.6275 6.66663 15 6.29413 15 5.83329V3.33329C15 2.41413 14.2525 1.66663 13.3333 1.66663H6.66663C5.74747 1.66663 4.99997 2.41413 4.99997 3.33329V5.83329C4.99997 6.29413 5.3733 6.66663 5.8333 6.66663V9.65496L4.65497 10.8333C4.34413 11.1433 4.16663 11.5733 4.16663 12.0117V13.3333C4.16663 13.7942 4.53997 14.1667 4.99997 14.1667H9.16663V16.6667L9.99996 18.3333ZM6.66663 3.33329H13.3333V4.99996H6.66663V3.33329ZM5.8333 12.0117L7.2558 10.5892C7.41246 10.4333 7.49997 10.2217 7.49997 9.99996V6.66663H12.5V9.99996C12.5 10.2217 12.5875 10.4333 12.7442 10.5892L14.1667 12.0117V12.5H5.8333V12.0117Z" fill="#20B758"/>
</svg>
