<svg width="20" height="16" viewBox="0 0 20 16" fill="none" xmlns="http://www.w3.org/2000/svg">
<g clip-path="url(#clip0_16_322)">
<path d="M0 12.2348C0 12.5589 0 13.5199 0 13.7317C0 13.9435 0.125684 14.3057 0.580406 14.3057C0.929214 14.3057 3.71403 14.3057 4.98994 14.3057C5.37617 14.3057 5.62542 14.3057 5.62542 14.3057H5.73486C5.73486 14.3057 5.8083 14.3057 5.92621 14.3057C5.92621 14.6475 5.92621 14.9582 5.92621 15.0775C5.92621 15.3395 6.08155 15.7878 6.64431 15.7878C7.07643 15.7878 10.5342 15.7878 12.1137 15.7878C12.5917 15.7878 12.9017 15.7878 12.9017 15.7878H13.0372C13.0372 15.7878 13.3409 15.7878 13.8118 15.7878C15.3857 15.7878 18.8491 15.7878 19.2819 15.7878C19.844 15.7878 20 15.3402 20 15.0775C20 14.8148 20 13.6265 20 13.2254C20 12.8244 19.8581 12.3795 19.2819 12.1324C18.5532 11.8132 16.5995 11.1072 15.3723 10.7449C15.2777 10.7146 15.2614 10.7096 15.2614 10.2888C15.2614 9.83552 15.3137 9.51425 15.4238 9.27842C15.5756 8.95644 15.755 8.41416 15.8185 7.92837C15.9993 7.71937 16.2443 7.30701 16.4018 6.52113C16.5409 5.82846 16.4759 5.57639 16.3841 5.33985C16.3742 5.31513 16.3636 5.29042 16.3566 5.26217C16.3227 5.1033 16.3693 4.25953 16.4893 3.60428C16.5712 3.1552 16.4681 2.20057 15.8496 1.40975C15.4591 0.910542 14.7114 0.29695 13.3691 0.212925L12.6207 0.212219C11.2558 0.297656 10.5087 0.910542 10.1183 1.40975C9.49974 2.19986 9.39735 3.1552 9.47926 3.60428C9.59788 4.25882 9.6459 5.1026 9.61059 5.265C9.60353 5.28971 9.59294 5.31443 9.58376 5.33914C9.49197 5.57568 9.42771 5.82775 9.5654 6.52043C9.72286 7.30631 9.96858 7.71866 10.1486 7.92766C10.2129 8.41345 10.3922 8.95573 10.5433 9.27771C10.6831 9.57427 10.8258 9.92449 10.8258 10.2726C10.8258 10.6941 10.8095 10.699 10.7086 10.7308C10.4558 10.805 10.1698 10.8946 9.86902 10.9907C9.16011 10.7273 8.26831 10.4194 7.62154 10.2281C7.54457 10.2041 7.53186 10.1998 7.53186 9.85953C7.53186 9.49307 7.57423 9.23323 7.6632 9.04258C7.78605 8.78203 7.9308 8.34426 7.98305 7.95097C8.12851 7.78221 8.32692 7.44894 8.45402 6.81346C8.56628 6.25353 8.51333 6.05017 8.43919 5.85882C8.43142 5.83834 8.42295 5.81857 8.4173 5.79598C8.38976 5.66747 8.42718 4.98539 8.52321 4.45582C8.58888 4.09289 8.50697 3.32113 8.00706 2.68142C7.69144 2.27824 7.08703 1.78256 6.00318 1.71337H5.39876C4.29585 1.78186 3.69214 2.27824 3.37652 2.68142C2.87661 3.32113 2.79329 4.09289 2.86037 4.45582C2.95569 4.98539 2.99523 5.66747 2.96699 5.7988C2.96134 5.81857 2.95216 5.83834 2.9451 5.85882C2.87026 6.05017 2.81871 6.25353 2.93027 6.81346C3.05737 7.44894 3.25578 7.78221 3.40124 7.95097C3.45349 8.34426 3.59823 8.78133 3.72039 9.04258C3.83336 9.28265 3.94916 9.56579 3.94916 9.84682C3.94916 10.1878 3.93645 10.1914 3.85455 10.2175C2.89568 10.5006 1.34581 11.0387 0.68985 11.3133C0.223831 11.5132 0 11.9107 0 12.2348ZM6.6662 13.2261C6.6662 13.116 6.77635 12.8943 7.07149 12.7679C7.85031 12.4424 9.75887 11.7843 10.9183 11.4426C11.5665 11.2392 11.5665 10.6814 11.5665 10.274C11.5665 9.78044 11.3878 9.3349 11.2127 8.9635C11.092 8.70507 10.9366 8.23976 10.8823 7.83164L10.8533 7.61275L10.7086 7.4454C10.6288 7.35291 10.4282 7.06341 10.2913 6.37568C10.1839 5.83834 10.2312 5.71619 10.2729 5.60816L10.2736 5.60675L10.28 5.58839C10.2955 5.55026 10.3089 5.51213 10.3195 5.47471L10.3273 5.44788L10.3329 5.42034C10.4085 5.06659 10.3096 4.04699 10.2058 3.47294C10.1585 3.21451 10.2178 2.483 10.7001 1.86659C11.1287 1.31866 11.7825 1.01151 12.6432 0.952907L13.3444 0.953613C14.3986 1.02563 14.9705 1.48883 15.2657 1.86659C15.7479 2.483 15.8065 3.21451 15.7599 3.47153C15.6583 4.03146 15.5573 5.06729 15.6321 5.41681L15.6357 5.43234L15.6399 5.44788C15.6554 5.50789 15.6745 5.56156 15.6964 5.61522C15.7345 5.71478 15.7825 5.83905 15.6752 6.37497C15.5375 7.06341 15.3377 7.3515 15.2579 7.44329L15.1124 7.61134L15.0842 7.83164C15.0298 8.24046 14.8752 8.70366 14.753 8.96209C14.5942 9.30172 14.52 9.72255 14.52 10.2881C14.52 10.6948 14.52 11.2512 15.147 11.4503C16.3417 11.8034 18.2821 12.5031 18.9839 12.8102C19.1929 12.8999 19.2586 13.0002 19.2586 13.2247V15.0457H6.67043L6.6669 13.2247L6.6662 13.2261ZM0.740688 12.2348C0.742101 12.2058 0.787997 12.078 0.981465 11.9947C1.61624 11.7285 3.14634 11.1997 4.06355 10.9285C4.68914 10.7294 4.68914 10.1772 4.68914 9.84752C4.68914 9.42175 4.53804 9.04258 4.38976 8.72767C4.29373 8.52219 4.17511 8.15503 4.13486 7.85423L4.10591 7.63534L3.96187 7.468C3.91668 7.41646 3.76346 7.20533 3.65613 6.668C3.57705 6.27471 3.60883 6.1928 3.63425 6.12714L3.63848 6.11725L3.64131 6.10737C3.65684 6.06924 3.66673 6.03887 3.6752 6.00851L3.68367 5.98097L3.68932 5.95344C3.76205 5.61169 3.65755 4.7086 3.58764 4.32307C3.55516 4.14161 3.60318 3.59298 3.95975 3.13684C4.27961 2.72872 4.77105 2.49854 5.42207 2.45335H5.97846C6.77423 2.50984 7.20282 2.85511 7.42312 3.13684C7.77899 3.59227 7.82771 4.14232 7.79523 4.32307C7.72039 4.73049 7.62295 5.62299 7.69214 5.94991L7.69568 5.96544L7.69921 5.98097C7.71333 6.03322 7.72957 6.07983 7.74793 6.12714C7.77334 6.1921 7.80512 6.27541 7.72674 6.668C7.61871 7.20604 7.46549 7.41575 7.42101 7.46729L7.27696 7.63464L7.24801 7.85353C7.20777 8.15573 7.08914 8.52219 6.9917 8.72767C6.85402 9.0221 6.78976 9.3815 6.78976 9.85953C6.78976 10.1899 6.78976 10.7428 7.39629 10.9349C7.7797 11.0486 8.25702 11.2053 8.72869 11.3698C7.94987 11.6367 7.20706 11.9072 6.77776 12.0865C6.20018 12.3343 5.9241 12.8244 5.9241 13.2254C5.9241 13.3087 5.9241 13.4281 5.9241 13.5651H0.739276V12.2348H0.740688Z" fill="#20B758"/>
</g>
<defs>
<clipPath id="clip0_16_322">
<rect width="20" height="16" fill="white"/>
</clipPath>
</defs>
</svg>
