<svg width="20" height="20" viewBox="0 0 20 20" fill="none" xmlns="http://www.w3.org/2000/svg">
<g clip-path="url(#clip0_16_286)">
<path fill-rule="evenodd" clip-rule="evenodd" d="M0.469803 0C0.345207 1.27123e-05 0.225716 0.0505278 0.137613 0.14044C0.0495107 0.230353 1.24564e-05 0.352299 0 0.479455V8.21925C1.24564e-05 8.34641 0.0495107 8.46835 0.137613 8.55826C0.225716 8.64818 0.345207 8.69869 0.469803 8.6987H8.05379C8.17839 8.69869 8.29788 8.64818 8.38598 8.55826C8.47408 8.46835 8.52358 8.34641 8.52359 8.21925V0.479455C8.52358 0.352299 8.47408 0.230353 8.38598 0.14044C8.29788 0.0505278 8.17839 1.27123e-05 8.05379 0H0.469803ZM11.9464 0C11.8218 1.27123e-05 11.7023 0.0505278 11.6142 0.14044C11.5261 0.230353 11.4766 0.352299 11.4766 0.479455V8.21925C11.4766 8.34641 11.5261 8.46835 11.6142 8.55826C11.7023 8.64818 11.8218 8.69869 11.9464 8.6987H19.5302C19.6548 8.69869 19.7743 8.64818 19.8624 8.55826C19.9505 8.46835 20 8.34641 20 8.21925V0.479455C20 0.352299 19.9505 0.230353 19.8624 0.14044C19.7743 0.0505278 19.6548 1.27123e-05 19.5302 0H11.9464ZM0.939606 0.958909H7.58399V7.7398H0.939606V0.958909ZM12.4162 0.958909H19.0604V7.7398H12.4162V0.958909ZM0.469803 11.3012C0.345207 11.3013 0.225716 11.3518 0.137613 11.4417C0.0495107 11.5316 1.24564e-05 11.6535 0 11.7807V19.5205C1.24564e-05 19.6477 0.0495107 19.7696 0.137613 19.8596C0.225716 19.9495 0.345207 20 0.469803 20H8.05379C8.17839 20 8.29788 19.9495 8.38598 19.8596C8.47408 19.7696 8.52358 19.6477 8.52359 19.5205V11.7807C8.52358 11.6535 8.47408 11.5316 8.38598 11.4417C8.29788 11.3518 8.17839 11.3013 8.05379 11.3012H0.469803ZM11.9464 11.3012C11.8218 11.3013 11.7023 11.3518 11.6142 11.4417C11.5261 11.5316 11.4766 11.6535 11.4766 11.7807V19.5205C11.4766 19.6477 11.5261 19.7696 11.6142 19.8596C11.7023 19.9495 11.8218 20 11.9464 20H19.5302C19.6548 20 19.7743 19.9495 19.8624 19.8596C19.9505 19.7696 20 19.6477 20 19.5205V11.7807C20 11.6535 19.9505 11.5316 19.8624 11.4417C19.7743 11.3518 19.6548 11.3013 19.5302 11.3012H11.9464ZM0.939606 12.2602H7.58399V19.0411H0.939606V12.2602ZM12.4162 12.2602H19.0604V19.0411H12.4162V12.2602Z" fill="#20B758"/>
</g>
<defs>
<clipPath id="clip0_16_286">
<rect width="20" height="20" fill="white"/>
</clipPath>
</defs>
</svg>
