<svg width="20" height="20" viewBox="0 0 20 20" fill="none" xmlns="http://www.w3.org/2000/svg">
<g clip-path="url(#clip0_16_290)">
<path d="M19 16.0667C18.9333 16.0334 18.8333 15.9667 18.7667 15.9334C18.1859 15.6377 17.5849 15.3723 16.9661 15.1358C16.9315 15.0893 16.8875 15.0514 16.8334 15.0334C16.0667 14.7667 15.2334 14.5 14.4 14.3C14.3488 14.2872 14.2927 14.2893 14.2393 14.3041C13.8322 14.2084 13.4195 14.123 13.0017 14.0477C13.0195 13.9229 13.0308 13.7959 13.0334 13.6667V12.7856C14.4393 11.5452 15.3084 9.5409 15.2667 7.66668V6.01719C15.2893 6.0009 15.3116 5.9841 15.3334 5.96668C15.7667 5.6 16 5.06668 16 4.53336C16 2.03332 13.9667 0 11.5 0H8.53332C6.03332 0 4 2.03332 3.96664 4.5C3.96664 5.06668 4.19996 5.56668 4.63332 5.93332C4.64422 5.94172 4.65559 5.94953 4.66664 5.9577V7.66664C4.66664 9.55703 5.56687 11.5795 6.99996 12.8172V13.6666C6.99996 13.7831 7.00715 13.8977 7.0198 14.0105C4.94559 14.3828 2.99676 15.0022 1.23328 15.9L0.999961 16.0333C0.36668 16.3333 0 16.9667 0 17.6667V19.6667C0 19.8667 0.13332 20 0.33332 20H3.66664H16.3333H19.6666C19.8666 20 20 19.8667 20 19.7V17.7C20 17.0333 19.6 16.4 19 16.0667ZM14.5333 17.3333H13.2333L14.5225 15.0195C15.0811 15.161 15.6275 15.3243 16.1596 15.5079L14.5333 17.3333ZM14.9 5.43332C14.8912 5.44098 14.8821 5.44809 14.8732 5.45547C14.8357 5.46418 14.7993 5.4782 14.7667 5.5C14.6225 5.60816 14.4685 5.67695 14.3101 5.70715C14.1845 5.72641 14.0566 5.72469 13.9334 5.7C11.5426 5.24605 9.12441 5.2043 6.80344 5.57461C6.54586 5.61184 6.2891 5.65348 6.03336 5.7C5.9923 5.70457 5.95125 5.70707 5.91027 5.70789C5.6423 5.70309 5.38262 5.62863 5.16668 5.46668C4.96668 5.33336 4.83336 5.13336 4.76668 4.93336L6.2 4.66668C8.7 4.2 11.2667 4.2 13.8333 4.66668L15.2555 4.93125C15.1817 5.11996 15.0588 5.29441 14.9 5.43332ZM8.5 0.66668H11.4667C13.5113 0.66668 15.1882 2.25895 15.3242 4.26953L13.9334 4.03336C11.3 3.56668 8.63336 3.56668 6.06668 4.03336L4.67586 4.26953C4.81168 2.25895 6.4873 0.66668 8.5 0.66668ZM5.33332 7.66668V6.3C5.6 6.36668 5.9 6.4 6.2 6.33332C7.44457 6.10102 8.70563 5.98441 9.975 5.9834C11.2445 5.98441 12.5223 6.10098 13.8 6.33332C13.8911 6.35609 13.9664 6.36316 14.037 6.36547C14.2469 6.38137 14.4662 6.35012 14.6666 6.3V7.66668C14.6666 10.7752 12.3868 13.1439 10.2558 13.3221C10.2318 13.3241 10.2077 13.3261 10.1836 13.3275C10.1668 13.3285 10.1501 13.3293 10.1333 13.33C10.0888 13.3319 10.0443 13.3334 9.99996 13.3334C9.95555 13.3334 9.91098 13.3319 9.86637 13.33C9.84996 13.3293 9.83355 13.3285 9.81711 13.3275C9.79133 13.326 9.76547 13.3239 9.73965 13.3218C9.31027 13.2852 8.875 13.1601 8.45355 12.9577C8.45 12.9559 8.44637 12.9544 8.44281 12.9526C8.44027 12.9514 8.43773 12.95 8.43519 12.9488C8.13289 12.7977 7.84047 12.6032 7.56664 12.3667C7.5373 12.3471 7.50215 12.3305 7.46469 12.3184C6.25031 11.312 5.33332 9.63805 5.33332 7.66668ZM9.83961 13.9967C9.84348 13.9968 9.84734 13.9971 9.85121 13.9973C9.90059 13.999 9.95016 14 9.99996 14C10.0498 14 10.0993 13.999 10.1487 13.9973C10.1526 13.9971 10.1565 13.9968 10.1604 13.9967C10.9494 13.9666 11.6826 13.716 12.3333 13.3091V13.6666C12.3333 14.9666 11.3 16 9.99996 16C8.69996 16 7.66664 14.9666 7.66664 13.6666V13.31C8.31832 13.7164 9.05109 13.9667 9.83961 13.9967ZM7.24684 14.8663C7.25316 14.8807 7.25961 14.895 7.26617 14.9093C7.40309 15.2126 7.58863 15.4884 7.81344 15.727C7.82523 15.7396 7.83715 15.7521 7.84914 15.7645C7.86355 15.7793 7.87801 15.794 7.89273 15.8085C7.91848 15.834 7.94469 15.8589 7.97133 15.8834C7.97453 15.8863 7.97762 15.8894 7.98086 15.8923C8.44086 16.3116 9.02785 16.582 9.67828 16.6495C9.68867 16.6506 9.69914 16.6516 9.70957 16.6526C9.74633 16.656 9.78328 16.6588 9.82043 16.6609C9.83281 16.6616 9.84516 16.6625 9.85758 16.663C9.90481 16.6652 9.95223 16.6666 10 16.6666C10.0479 16.6666 10.0954 16.6652 10.1427 16.663C10.1548 16.6625 10.1668 16.6616 10.1789 16.661C10.2171 16.6588 10.2551 16.6559 10.2929 16.6524C10.3018 16.6516 10.3108 16.6508 10.3196 16.6498C11.2714 16.5523 12.1027 16.0232 12.5744 15.2312C12.5773 15.2264 12.5802 15.2216 12.5831 15.2168C12.589 15.2067 12.595 15.1966 12.6008 15.1864C12.698 15.0232 12.7805 14.8502 12.8465 14.6689C13.1747 14.7229 13.4991 14.7855 13.8201 14.8547L12.4582 17.3333H7.52344L6.16359 14.8584C6.49418 14.7866 6.8284 14.7221 7.16668 14.6666C7.18539 14.7184 7.20578 14.7692 7.22695 14.8195C7.2334 14.8352 7.24012 14.8507 7.24684 14.8663ZM3.86977 15.5036C4.40191 15.3177 4.94844 15.1541 5.50695 15.0128L6.76668 17.3333H5.46668L3.86977 15.5036ZM0.66668 17.6667C0.66668 17.2334 0.9 16.8334 1.3 16.6334L1.53332 16.5C2.06262 16.2302 2.61137 15.983 3.17742 15.7604L4.62742 17.3741C3.87879 17.5396 3.33328 18.1952 3.33328 19V19.3334H0.66668V17.6667ZM4 19.3333V19C4 18.4333 4.43332 18 5 18H5.33332H7.33332H12.6666H14.6666H15C15.5667 18 16 18.4333 16 19V19.3333H4ZM19.3333 19.3333H16.6666V19C16.6666 18.1862 16.1091 17.5247 15.3476 17.3685L16.8075 15.7438C17.3789 15.9629 17.9327 16.2049 18.4666 16.4666C18.5333 16.5333 18.6333 16.5666 18.7 16.6C19.1 16.8333 19.3333 17.2333 19.3333 17.6666V19.3333Z" fill="#20B758"/>
<path d="M8.33332 3H11.6666C11.8666 3 12 2.86668 12 2.66668V1.33332C12 1.13332 11.8666 1 11.6666 1H8.33332C8.13332 1 8 1.13332 8 1.33332V2.66664C8 2.86668 8.13332 3 8.33332 3ZM8.66668 1.66668H11.3334V2.33336H8.66668V1.66668Z" fill="#20B758"/>
<path d="M6.33332 18.3333C6.13332 18.3333 6 18.4666 6 18.6666C6 18.8666 6.13332 19 6.33332 19C6.53332 19 6.66664 18.8666 6.66664 18.6666C6.66664 18.4666 6.53332 18.3333 6.33332 18.3333Z" fill="#20B758"/>
<path d="M13.6667 18.3333C13.4667 18.3333 13.3334 18.4666 13.3334 18.6666C13.3334 18.8666 13.4667 19 13.6667 19C13.8667 19 14 18.8666 14 18.6666C14 18.4666 13.8667 18.3333 13.6667 18.3333Z" fill="#20B758"/>
</g>
<defs>
<clipPath id="clip0_16_290">
<rect width="20" height="20" fill="white"/>
</clipPath>
</defs>
</svg>
