<svg width="20" height="20" viewBox="0 0 20 20" fill="none" xmlns="http://www.w3.org/2000/svg">
<g clip-path="url(#clip0_16_288)">
<path d="M9.81496 0L9.09551 0.039076L8.37835 0.128721L7.66808 0.271233L6.97391 0.464314L6.29353 0.707965L5.63383 0.999885L4.99253 1.33778L4.3834 1.72164L3.79956 2.14918L3.2479 2.61579L2.73302 3.12148L2.25721 3.66395L1.82048 4.23859L1.42512 4.84542L1.07344 5.47523L0.772325 6.13263L0.514883 6.80611L0.310309 7.49799L0.156304 8.20595L0.0505689 8.92081L0 9.64027V10.3643L0.0505689 11.0815L0.156304 11.7963L0.310309 12.5043L0.514883 13.1939L0.772325 13.8697L1.07344 14.5271L1.42512 15.1569L1.82048 15.7637L2.25721 16.3384L2.73302 16.8808L3.2479 17.3865L3.79956 17.8531L4.3834 18.2807L4.99253 18.6645L5.63383 19.0024L6.29353 19.292L6.97391 19.538L7.66808 19.7288L8.37835 19.8736L9.09551 19.9632L9.81496 20.0023L10.539 19.9908L11.2585 19.9264L11.9687 19.8069L12.6721 19.6391L13.3594 19.4231L14.0306 19.1541L14.6811 18.8392L15.3063 18.4783L15.9062 18.0715L16.4717 17.6233L17.0049 17.1383L17.5014 16.6119L17.9589 16.0533L18.3749 15.4649L18.7496 14.8466L19.0737 14.2007L19.3541 13.5341L19.584 12.8514L19.7655 12.1503L19.8943 11.4424L19.9724 10.7229L20 10.0011L19.9724 9.27939L19.8943 8.55994L19.7655 7.85197L19.584 7.1509L19.3541 6.46822L19.0737 5.80163L18.7496 5.15573L18.3749 4.53741L17.9589 3.94897L17.5014 3.38812L17.0049 2.86404L16.4717 2.37674L15.9062 1.93081L15.3063 1.52396L14.6811 1.16308L14.0306 0.848178L13.3594 0.581542L12.6721 0.363177L11.9687 0.19538L11.2585 0.0781519L10.539 0.0114929L9.81496 0ZM10.1666 1.17688L10.8493 1.21595L11.5274 1.31019L12.1963 1.45271L12.8537 1.65039L13.4904 1.89633L14.111 2.19055L14.7018 2.53304L15.2672 2.9215L15.8005 3.35134L16.297 3.82025L16.7567 4.32824L17.175 4.86841L17.552 5.43846L17.883 6.03839L18.1657 6.6613L18.4002 7.30721L18.5864 7.9669L18.7174 8.63809L18.7955 9.31847L18.8231 10.0011L18.7955 10.6838L18.7174 11.3642L18.5864 12.0354L18.4002 12.6951L18.1657 13.3387L17.883 13.9616L17.552 14.5615L17.175 15.1339L16.7567 15.6764L16.297 16.182L15.8005 16.651L15.2672 17.0808L14.7018 17.4693L14.111 17.8117L13.4904 18.106L12.8537 18.3519L12.1963 18.5496L11.5274 18.6944L10.8493 18.7863L10.1666 18.8254L9.48397 18.8139L8.80129 18.745L8.1278 18.6254L7.46581 18.4553L6.81761 18.2347L6.18779 17.9635L5.58327 17.6462L5.00402 17.2785L4.45466 16.8716L3.93978 16.4211L3.45937 15.9315L3.02034 15.4074L2.62269 14.8512L2.2687 14.265L1.96069 13.6536L1.70325 13.0192L1.49408 12.3664L1.33548 11.6998L1.22974 11.024L1.17688 10.3436V9.65866L1.22974 8.97598L1.33548 8.30019L1.49408 7.6359L1.70325 6.98311L1.96069 6.3487L2.2687 5.73727L2.62269 5.15113L3.02034 4.59258L3.45937 4.0708L3.93978 3.5812L4.45466 3.13067L5.00402 2.72153L5.58327 2.35605L6.18779 2.03885L6.81761 1.76761L7.46581 1.54695L8.1278 1.37455L8.80129 1.25733L9.48397 1.18837L10.1666 1.17688ZM9.40811 4.70521V5.88208H10.585V4.70521H9.40811ZM9.40811 8.23584V15.2971H10.585V8.23584H9.40811Z" fill="#20B758"/>
</g>
<defs>
<clipPath id="clip0_16_288">
<rect width="20" height="20" fill="white"/>
</clipPath>
</defs>
</svg>
