<svg width="20" height="20" viewBox="0 0 20 20" fill="none" xmlns="http://www.w3.org/2000/svg">
<g clip-path="url(#clip0_16_327)">
<path d="M6.50195 1.19345e-06C6.424 -0.000169111 6.34708 0.0178896 6.27734 0.0527356L0.277344 3.05274C0.194109 3.09414 0.124064 3.15792 0.0750726 3.23693C0.0260814 3.31594 8.42322e-05 3.40704 0 3.5V19.5C8.54609e-05 19.5851 0.0218865 19.6688 0.0633395 19.7431C0.104792 19.8174 0.164526 19.8799 0.236886 19.9247C0.309245 19.9695 0.391837 19.9951 0.476843 19.999C0.561849 20.003 0.646456 19.9851 0.722656 19.9473L6.51562 17.0508L13.3027 19.959C13.3694 19.9876 13.4415 20.0014 13.514 19.9994C13.5865 19.9973 13.6577 19.9796 13.7227 19.9473L15.7949 18.9102L15.0508 18.166L13.4844 18.9492L8.38867 16.7656C7.88694 16.6242 7.41293 16.4183 6.97266 16.1582L6.69727 16.041C6.63061 16.0124 6.55853 15.9986 6.48601 16.0006C6.4135 16.0027 6.3423 16.0204 6.27734 16.0527L1 18.6914V3.80859L6.51562 1.05078L13.3027 3.95899C13.3694 3.98761 13.4415 4.00138 13.514 3.99936C13.5865 3.99734 13.6577 3.97956 13.7227 3.94727L19 1.30859V16.1914L17.8789 16.752L18.5605 17.4336C18.5814 17.4545 18.6015 17.476 18.6211 17.498L19.7227 16.9473C19.8059 16.9059 19.8759 16.8421 19.9249 16.7631C19.9739 16.6841 19.9999 16.593 20 16.5V0.500001C19.9999 0.414904 19.9781 0.331236 19.9367 0.256918C19.8952 0.182599 19.8355 0.120089 19.7631 0.0753043C19.6908 0.0305196 19.6082 0.00494203 19.5232 0.000992687C19.4382 -0.00295666 19.3535 0.0148529 19.2773 0.0527356L13.4844 2.94922L6.69727 0.0410168C6.63558 0.0143601 6.56915 0.00041049 6.50195 1.19345e-06ZM6.49219 1.99219C6.42653 1.99321 6.36171 2.00716 6.30144 2.03324C6.24117 2.05931 6.18662 2.097 6.14092 2.14416C6.09522 2.19131 6.05925 2.24701 6.03507 2.30806C6.01089 2.36912 5.99897 2.43434 6 2.5V6.54297C6.30712 6.26642 6.64121 6.02189 7 5.8125V2.5C7.00105 2.43302 6.98863 2.36652 6.96348 2.30444C6.93833 2.24235 6.90097 2.18595 6.8536 2.13859C6.80623 2.09122 6.74984 2.05386 6.68775 2.02871C6.62567 2.00356 6.55916 1.99114 6.49219 1.99219ZM13.4922 4.99219C13.4265 4.99321 13.3617 5.00716 13.3014 5.03324C13.2412 5.05931 13.1866 5.097 13.1409 5.14416C13.0952 5.19131 13.0592 5.24701 13.0351 5.30806C13.0109 5.36912 12.999 5.43434 13 5.5V5.8125C13.3588 6.02189 13.6929 6.26642 14 6.54297V5.5C14.001 5.43303 13.9886 5.36652 13.9635 5.30444C13.9383 5.24235 13.901 5.18595 13.8536 5.13859C13.8062 5.09122 13.7498 5.05386 13.6878 5.02871C13.6257 5.00356 13.5592 4.99114 13.4922 4.99219ZM10 5.99219C7.2445 5.99219 5 8.23669 5 10.9922C5 13.7477 7.2445 15.9922 10 15.9922C11.1976 15.9922 12.2843 15.5513 13.1465 14.8457L17.1465 18.8477C17.193 18.8941 17.2483 18.9309 17.3091 18.956C17.3698 18.981 17.4349 18.9939 17.5007 18.9938C17.5664 18.9937 17.6315 18.9807 17.6922 18.9554C17.7529 18.9302 17.8081 18.8932 17.8545 18.8467C17.9009 18.8001 17.9377 18.7449 17.9628 18.6841C17.9879 18.6233 18.0007 18.5582 18.0006 18.4925C18.0005 18.4267 17.9875 18.3616 17.9623 18.3009C17.937 18.2402 17.9001 18.1851 17.8535 18.1387L13.8535 14.1387C14.5591 13.2764 15 12.1898 15 10.9922C15 8.23669 12.7555 5.99219 10 5.99219ZM10 6.99219C12.2151 6.99219 14 8.77713 14 10.9922C14 13.2073 12.2151 14.9922 10 14.9922C7.78494 14.9922 6 13.2073 6 10.9922C6 8.77713 7.78494 6.99219 10 6.99219ZM13.0371 16.1523C13.0251 16.1595 13.012 16.1648 13 16.1719V17.5C12.9991 17.5663 13.0113 17.632 13.036 17.6935C13.0607 17.755 13.0974 17.811 13.1439 17.8582C13.1904 17.9053 13.2459 17.9428 13.307 17.9684C13.3681 17.994 13.4337 18.0071 13.5 18.0071C13.5663 18.0071 13.6319 17.994 13.693 17.9684C13.7541 17.9428 13.8096 17.9053 13.8561 17.8582C13.9026 17.811 13.9393 17.755 13.964 17.6935C13.9887 17.632 14.0009 17.5663 14 17.5V17.1152L13.0371 16.1523Z" fill="#20B758"/>
</g>
<defs>
<clipPath id="clip0_16_327">
<rect width="20" height="20" fill="white"/>
</clipPath>
</defs>
</svg>
