<svg width="20" height="20" viewBox="0 0 20 20" fill="none" xmlns="http://www.w3.org/2000/svg">
<g clip-path="url(#clip0_16_324)">
<path d="M17.2222 0H2.77778C2.04134 0.000882143 1.33531 0.293823 0.814567 0.814567C0.293823 1.33531 0.000882143 2.04134 0 2.77778V17.2222C0.000764745 17.9587 0.293668 18.6648 0.814437 19.1856C1.33521 19.7063 2.0413 19.9992 2.77778 20H10.5556C10.7029 20 10.8442 19.9415 10.9484 19.8373C11.0526 19.7331 11.1111 19.5918 11.1111 19.4444C11.1111 19.2971 11.0526 19.1558 10.9484 19.0516C10.8442 18.9474 10.7029 18.8889 10.5556 18.8889H2.77778C2.3359 18.8884 1.91227 18.7126 1.59982 18.4002C1.28737 18.0877 1.11161 17.6641 1.11111 17.2222V2.77778C1.11161 2.3359 1.28737 1.91227 1.59982 1.59982C1.91227 1.28737 2.3359 1.11161 2.77778 1.11111H6.66667V7.22222C6.66667 7.36957 6.7252 7.51087 6.82938 7.61506C6.93357 7.71925 7.07488 7.77778 7.22222 7.77778H12.7778C12.9251 7.77778 13.0664 7.71925 13.1706 7.61506C13.2748 7.51087 13.3333 7.36957 13.3333 7.22222V1.11111H17.2222C17.6641 1.11161 18.0877 1.28737 18.4002 1.59982C18.7126 1.91227 18.8884 2.3359 18.8889 2.77778V11.6667C18.8889 11.814 18.9474 11.9553 19.0516 12.0595C19.1558 12.1637 19.2971 12.2222 19.4444 12.2222C19.5918 12.2222 19.7331 12.1637 19.8373 12.0595C19.9415 11.9553 20 11.814 20 11.6667V2.77778C19.9991 2.04134 19.7062 1.33531 19.1854 0.814567C18.6647 0.293823 17.9587 0.000882143 17.2222 0ZM12.2222 6.66667H7.77778V1.11111H12.2222V6.66667Z" fill="#20B758"/>
<path d="M20 17.2223C20 17.3696 19.9415 17.5109 19.8373 17.6151C19.7331 17.7193 19.5918 17.7778 19.4444 17.7778H15.23L15.9483 18.4962C16.0014 18.5474 16.0437 18.6087 16.0728 18.6765C16.1019 18.7443 16.1173 18.8172 16.1179 18.891C16.1186 18.9647 16.1045 19.0379 16.0766 19.1062C16.0486 19.1744 16.0074 19.2365 15.9552 19.2886C15.9031 19.3408 15.841 19.382 15.7728 19.41C15.7045 19.4379 15.6313 19.452 15.5576 19.4513C15.4838 19.4507 15.4109 19.4354 15.3431 19.4062C15.2753 19.3771 15.214 19.3348 15.1628 19.2817L13.4968 17.6157C13.3927 17.5113 13.3342 17.3698 13.3342 17.2223C13.3342 17.0748 13.3927 16.9333 13.4968 16.8288L15.1628 15.1628C15.2676 15.0616 15.4079 15.0057 15.5536 15.0069C15.6992 15.0082 15.8386 15.0666 15.9416 15.1696C16.0446 15.2726 16.103 15.412 16.1043 15.5576C16.1055 15.7033 16.0495 15.8436 15.9483 15.9484L15.23 16.6667H19.4444C19.5918 16.6667 19.7331 16.7253 19.8373 16.8295C19.9415 16.9336 20 17.075 20 17.2223Z" fill="#20B758"/>
</g>
<defs>
<clipPath id="clip0_16_324">
<rect width="20" height="20" fill="white"/>
</clipPath>
</defs>
</svg>
