<svg width="20" height="14" viewBox="0 0 20 14" fill="none" xmlns="http://www.w3.org/2000/svg">
<g clip-path="url(#clip0_16_331)">
<path d="M19.6667 4.33334H18.3334C18.2 4.33334 18.0667 4.43334 18.0334 4.56666L17.1 7.33333H16.2L15.3 5.83333C15.2334 5.73333 15.1334 5.66665 15 5.66665H13.6667V4.66665C13.6667 4.46665 13.5334 4.33334 13.3334 4.33334H11V3.00002H12C12.2 3.00002 12.3333 2.8667 12.3333 2.6667V0.666694C12.3333 0.466694 12.2 0.333374 12 0.333374H6C5.8 0.333374 5.66668 0.466694 5.66668 0.666694V2.6667C5.66668 2.8667 5.8 3.00002 6 3.00002H7V4.33334H4.33332C4.23332 4.33334 4.16664 4.36666 4.1 4.43334C4.03336 4.50002 4 4.56665 4 4.66665V5.66665H1.66668C1.46668 5.66665 1.33336 5.79998 1.33336 5.99998V7.99998H0.66668V7.00002C0.66668 6.80002 0.533359 6.66669 0.333359 6.66669C0.133359 6.66669 0 6.80002 0 7.00002V9.6667C0 9.8667 0.13332 10 0.33332 10C0.53332 10 0.666641 9.8667 0.666641 9.6667V8.6667H1.33332V11.3334C1.33332 11.5334 1.46664 11.6667 1.66664 11.6667H4.16664L5.39996 13.5334C5.46664 13.6 5.56664 13.6667 5.66664 13.6667H15C15.1333 13.6667 15.2333 13.6 15.3 13.4667L16.2 11.6667H17.1333L18.0333 13.4667C18.1 13.6 18.2 13.6667 18.3333 13.6667H19.6666C19.8666 13.6667 20 13.5334 20 13.3334V4.66669C20 4.46669 19.8667 4.33334 19.6667 4.33334ZM6.33332 1.00001H11.6666V2.33333H10.6666H7.33332H6.33332V1.00001ZM7.66668 3.00002H10.3334V4.33334H7.66668V3.00002ZM2 11V6.33333H4V11H2ZM14.7667 13H5.83332L4.66664 11.2342V6.00002V5.00002H7.33332H10.6666H13V6.00002C13 6.20002 13.1333 6.33333 13.3333 6.33333H14.8L15.6667 7.77779V11.2L14.7667 13ZM16.3333 11V8.00002H17V11H16.3333ZM19.3333 13H18.5333L17.6666 11.3286V7.66786L18.5666 5.00002H19.3333V13Z" fill="#20B758"/>
</g>
<defs>
<clipPath id="clip0_16_331">
<rect width="20" height="14" fill="white"/>
</clipPath>
</defs>
</svg>
