<svg width="20" height="20" viewBox="0 0 20 20" fill="none" xmlns="http://www.w3.org/2000/svg">
<g clip-path="url(#clip0_16_295)">
<mask id="mask0_16_295" style="mask-type:luminance" maskUnits="userSpaceOnUse" x="0" y="0" width="20" height="20">
<path d="M20 0H0V20H20V0Z" fill="white"/>
</mask>
<g mask="url(#mask0_16_295)">
<path d="M19.6456 6.6705H0.354779C0.276979 6.67018 0.201421 6.64433 0.139644 6.5969C0.0778668 6.54946 0.0332678 6.48305 0.0126591 6.4078C-0.00789825 6.33306 -0.00332096 6.2536 0.0256825 6.18172C0.054686 6.10985 0.106499 6.04957 0.173102 6.01021L9.81852 0.245133C9.87315 0.212641 9.9355 0.195496 9.99901 0.195496C10.0625 0.195496 10.1249 0.212641 10.1795 0.245133L19.8273 5.99838C19.8936 6.03802 19.9452 6.09834 19.9741 6.17012C20.0031 6.2419 20.0079 6.32121 19.9877 6.39597C19.969 6.47322 19.9252 6.54206 19.8633 6.59172C19.8014 6.64139 19.7249 6.66909 19.6456 6.6705ZM1.64068 5.96051H18.3574L10.0002 0.964584L1.64068 5.96051Z" fill="#20B758"/>
<path d="M2.07265 19.7705C2.02629 19.7702 1.98046 19.7606 1.93782 19.7422C1.89517 19.7238 1.85655 19.6971 1.82422 19.6635C1.79188 19.6299 1.76646 19.5901 1.74943 19.5465C1.73241 19.5029 1.72412 19.4563 1.72505 19.4094V6.2995C1.72505 6.20561 1.76192 6.11557 1.82754 6.04918C1.89317 5.98279 1.98217 5.9455 2.07498 5.9455C2.16779 5.9455 2.25679 5.98279 2.32242 6.04918C2.38804 6.11557 2.42491 6.20561 2.42491 6.2995V19.4094C2.42584 19.4567 2.41741 19.5037 2.40009 19.5476C2.38278 19.5915 2.35694 19.6315 2.32411 19.6652C2.29127 19.6988 2.2521 19.7255 2.20891 19.7436C2.16572 19.7617 2.11939 19.7708 2.07265 19.7705Z" fill="#20B758"/>
<path d="M18.0375 19.7705C17.948 19.7705 17.862 19.7332 17.7987 19.6668C17.7355 19.6004 17.7 19.5104 17.7 19.4165V6.2995C17.7 6.20561 17.7355 6.11557 17.7987 6.04918C17.862 5.98279 17.948 5.9455 18.0375 5.9455C18.127 5.9455 18.2128 5.98279 18.2761 6.04918C18.3394 6.11557 18.3749 6.20561 18.3749 6.2995V19.4094C18.3758 19.4565 18.3678 19.5033 18.3512 19.5471C18.3346 19.5908 18.3099 19.6307 18.2785 19.6643C18.2471 19.6979 18.2095 19.7247 18.1681 19.7429C18.1267 19.7611 18.0824 19.7705 18.0375 19.7705Z" fill="#20B758"/>
<path d="M18.0215 8.2705H2.07843C1.98469 8.2705 1.89479 8.23362 1.8285 8.16798C1.76222 8.10235 1.72498 8.01332 1.72498 7.9205C1.72498 7.82767 1.76222 7.73865 1.8285 7.67301C1.89479 7.60737 1.98469 7.5705 2.07843 7.5705H18.0215C18.1153 7.5705 18.2052 7.60737 18.2715 7.67301C18.3378 7.73865 18.375 7.82767 18.375 7.9205C18.375 8.01332 18.3378 8.10235 18.2715 8.16798C18.2052 8.23362 18.1153 8.2705 18.0215 8.2705Z" fill="#20B758"/>
<path d="M10.0207 19.8205H4.25436C4.16039 19.8205 4.07026 19.7831 4.00381 19.7166C3.93735 19.6501 3.90002 19.5599 3.90002 19.4658V14.5002C3.90002 14.4061 3.93735 14.3159 4.00381 14.2494C4.07026 14.1829 4.16039 14.1455 4.25436 14.1455H10.0207C10.1146 14.1455 10.2048 14.1829 10.2712 14.2494C10.3377 14.3159 10.375 14.4061 10.375 14.5002V19.4658C10.375 19.5599 10.3377 19.6501 10.2712 19.7166C10.2048 19.7831 10.1146 19.8205 10.0207 19.8205ZM4.6087 19.1111H9.66634V14.8549H4.6087V19.1111Z" fill="#20B758"/>
<path d="M15.7972 19.8205H10.0528C9.95922 19.8205 9.86947 19.7831 9.8033 19.7166C9.73713 19.6501 9.69995 19.5599 9.69995 19.4658V14.5002C9.69995 14.4061 9.73713 14.3159 9.8033 14.2494C9.86947 14.1829 9.95922 14.1455 10.0528 14.1455H15.7972C15.8907 14.1455 15.9805 14.1829 16.0467 14.2494C16.1128 14.3159 16.15 14.4061 16.15 14.5002V19.4658C16.15 19.5599 16.1128 19.6501 16.0467 19.7166C15.9805 19.7831 15.8907 19.8205 15.7972 19.8205ZM10.4057 19.1111H15.4443V14.8549H10.4057V19.1111Z" fill="#20B758"/>
<path d="M12.9444 14.8705H7.15563C7.06132 14.8705 6.97088 14.8331 6.9042 14.7666C6.83751 14.7001 6.80005 14.6099 6.80005 14.5158V9.55018C6.80067 9.45631 6.83833 9.36645 6.90488 9.30007C6.97143 9.23368 7.06152 9.19612 7.15563 9.1955H12.9444C13.0387 9.1955 13.1292 9.23286 13.1959 9.29938C13.2625 9.3659 13.3 9.45611 13.3 9.55018V14.5158C13.3 14.6099 13.2625 14.7001 13.1959 14.7666C13.1292 14.8331 13.0387 14.8705 12.9444 14.8705ZM7.51121 14.1611H12.5841V9.90487H7.51121V14.1611Z" fill="#20B758"/>
<path d="M8.41961 16.1705H5.90549C5.81122 16.1705 5.72081 16.1323 5.65415 16.0643C5.5875 15.9963 5.55005 15.9041 5.55005 15.808C5.55005 15.7119 5.5875 15.6197 5.65415 15.5517C5.72081 15.4837 5.81122 15.4455 5.90549 15.4455H8.41961C8.51388 15.4455 8.60429 15.4837 8.67094 15.5517C8.7376 15.6197 8.77505 15.7119 8.77505 15.808C8.77505 15.9041 8.7376 15.9963 8.67094 16.0643C8.60429 16.1323 8.51388 16.1705 8.41961 16.1705Z" fill="#20B758"/>
<path d="M8.41961 17.3455H5.90549C5.81122 17.3455 5.72081 17.3073 5.65415 17.2393C5.5875 17.1714 5.55005 17.0792 5.55005 16.983C5.55005 16.8869 5.5875 16.7947 5.65415 16.7267C5.72081 16.6587 5.81122 16.6205 5.90549 16.6205H8.41961C8.51388 16.6205 8.60429 16.6587 8.67094 16.7267C8.7376 16.7947 8.77505 16.8869 8.77505 16.983C8.77505 17.0792 8.7376 17.1714 8.67094 17.2393C8.60429 17.3073 8.51388 17.3455 8.41961 17.3455Z" fill="#20B758"/>
<path d="M14.1723 16.1455H11.6777C11.5841 16.1455 11.4944 16.1073 11.4283 16.0393C11.3622 15.9713 11.325 15.8791 11.325 15.783C11.325 15.6869 11.3622 15.5947 11.4283 15.5267C11.4944 15.4587 11.5841 15.4205 11.6777 15.4205H14.1723C14.2659 15.4205 14.3556 15.4587 14.4217 15.5267C14.4878 15.5947 14.525 15.6869 14.525 15.783C14.525 15.8791 14.4878 15.9713 14.4217 16.0393C14.3556 16.1073 14.2659 16.1455 14.1723 16.1455Z" fill="#20B758"/>
<path d="M14.1723 17.3205H11.6777C11.5841 17.3205 11.4944 17.2823 11.4283 17.2143C11.3622 17.1463 11.325 17.0541 11.325 16.958C11.325 16.8618 11.3622 16.7696 11.4283 16.7017C11.4944 16.6337 11.5841 16.5955 11.6777 16.5955H14.1723C14.2659 16.5955 14.3556 16.6337 14.4217 16.7017C14.4878 16.7696 14.525 16.8618 14.525 16.958C14.525 17.0541 14.4878 17.1463 14.4217 17.2143C14.3556 17.2823 14.2659 17.3205 14.1723 17.3205Z" fill="#20B758"/>
<path d="M11.2751 11.2455H8.79988C8.70707 11.2455 8.61807 11.2086 8.55244 11.143C8.48682 11.0774 8.44995 10.9883 8.44995 10.8955C8.44995 10.8027 8.48682 10.7137 8.55244 10.648C8.61807 10.5824 8.70707 10.5455 8.79988 10.5455H11.2751C11.3679 10.5455 11.4569 10.5824 11.5225 10.648C11.5881 10.7137 11.625 10.8027 11.625 10.8955C11.625 10.9883 11.5881 11.0774 11.5225 11.143C11.4569 11.2086 11.3679 11.2455 11.2751 11.2455Z" fill="#20B758"/>
<path d="M11.2751 12.4205H8.79988C8.70707 12.4205 8.61807 12.3836 8.55244 12.318C8.48682 12.2523 8.44995 12.1633 8.44995 12.0705C8.44995 11.9777 8.48682 11.8886 8.55244 11.823C8.61807 11.7574 8.70707 11.7205 8.79988 11.7205H11.2751C11.3679 11.7205 11.4569 11.7574 11.5225 11.823C11.5881 11.8886 11.625 11.9777 11.625 12.0705C11.625 12.1633 11.5881 12.2523 11.5225 12.318C11.4569 12.3836 11.3679 12.4205 11.2751 12.4205Z" fill="#20B758"/>
</g>
</g>
<defs>
<clipPath id="clip0_16_295">
<rect width="20" height="20" fill="white"/>
</clipPath>
</defs>
</svg>
